<svg width="600" height="800" viewBox="0 0 600 800" xmlns="http://www.w3.org/2000/svg">
  <defs>
    <linearGradient id="floorGradient" x1="0%" y1="0%" x2="100%" y2="100%">
      <stop offset="0%" stop-color="#8b5a2b" />
      <stop offset="100%" stop-color="#6b4423" />
    </linearGradient>
    <linearGradient id="wallGradient" x1="0%" y1="0%" x2="0%" y2="100%">
      <stop offset="0%" stop-color="#f8f4ec" />
      <stop offset="100%" stop-color="#e8e4dc" />
    </linearGradient>
    <linearGradient id="tableGradient" x1="0%" y1="0%" x2="100%" y2="100%">
      <stop offset="0%" stop-color="#5d4037" />
      <stop offset="100%" stop-color="#4e342e" />
    </linearGradient>
    <linearGradient id="chairGradient" x1="0%" y1="0%" x2="100%" y2="100%">
      <stop offset="0%" stop-color="#4b1d0f" />
      <stop offset="100%" stop-color="#331409" />
    </linearGradient>
    <linearGradient id="windowGradient" x1="0%" y1="0%" x2="0%" y2="100%">
      <stop offset="0%" stop-color="#87ceeb" />
      <stop offset="100%" stop-color="#4682b4" />
    </linearGradient>
  </defs>

  <!-- Background/Wall -->
  <rect width="600" height="800" fill="url(#wallGradient)" />
  
  <!-- Floor -->
  <rect x="0" y="600" width="600" height="200" fill="url(#floorGradient)" />
  
  <!-- Ceiling beams -->
  <rect x="0" y="50" width="600" height="15" fill="#5d4037" />
  <rect x="0" y="170" width="600" height="10" fill="#5d4037" />
  
  <!-- Windows on left wall -->
  <rect x="50" y="100" width="120" height="200" fill="url(#windowGradient)" />
  <rect x="50" y="100" width="120" height="10" fill="#5d4037" />
  <rect x="50" y="200" width="120" height="10" fill="#5d4037" />
  <rect x="50" y="100" width="10" height="200" fill="#5d4037" />
  <rect x="160" y="100" width="10" height="200" fill="#5d4037" />
  <rect x="105" y="100" width="10" height="200" fill="#5d4037" />
  
  <!-- Windows on right wall -->
  <rect x="430" y="100" width="120" height="200" fill="url(#windowGradient)" />
  <rect x="430" y="100" width="120" height="10" fill="#5d4037" />
  <rect x="430" y="200" width="120" height="10" fill="#5d4037" />
  <rect x="430" y="100" width="10" height="200" fill="#5d4037" />
  <rect x="540" y="100" width="10" height="200" fill="#5d4037" />
  <rect x="485" y="100" width="10" height="200" fill="#5d4037" />
  
  <!-- Bar counter (centered) -->
  <rect x="150" y="320" width="300" height="50" rx="5" fill="#795548" />
  <rect x="150" y="370" width="300" height="10" fill="#5d4037" />
  <rect x="170" y="270" width="260" height="50" fill="#8d6e63" />
  
  <!-- Bottles on the bar -->
  <rect x="180" y="240" width="10" height="30" fill="#4caf50" opacity="0.7" />
  <rect x="200" y="240" width="10" height="25" fill="#2196f3" opacity="0.7" />
  <rect x="220" y="240" width="10" height="28" fill="#ff9800" opacity="0.7" />
  <rect x="240" y="240" width="10" height="22" fill="#9c27b0" opacity="0.7" />
  <rect x="260" y="240" width="10" height="27" fill="#e91e63" opacity="0.7" />
  <rect x="280" y="240" width="10" height="24" fill="#03a9f4" opacity="0.7" />
  <rect x="300" y="240" width="10" height="30" fill="#cddc39" opacity="0.7" />
  <rect x="320" y="240" width="10" height="25" fill="#673ab7" opacity="0.7" />
  <rect x="340" y="240" width="10" height="28" fill="#ffc107" opacity="0.7" />
  <rect x="360" y="240" width="10" height="23" fill="#8bc34a" opacity="0.7" />
  <rect x="380" y="240" width="10" height="26" fill="#f44336" opacity="0.7" />
  <rect x="400" y="240" width="10" height="29" fill="#3f51b5" opacity="0.7" />
  
  <!-- Bar stools -->
  <ellipse cx="200" cy="400" rx="15" ry="10" fill="url(#chairGradient)" />
  <rect x="195" y="400" width="10" height="30" fill="#3e2723" />
  
  <ellipse cx="250" cy="400" rx="15" ry="10" fill="url(#chairGradient)" />
  <rect x="245" y="400" width="10" height="30" fill="#3e2723" />
  
  <ellipse cx="300" cy="400" rx="15" ry="10" fill="url(#chairGradient)" />
  <rect x="295" y="400" width="10" height="30" fill="#3e2723" />
  
  <ellipse cx="350" cy="400" rx="15" ry="10" fill="url(#chairGradient)" />
  <rect x="345" y="400" width="10" height="30" fill="#3e2723" />
  
  <ellipse cx="400" cy="400" rx="15" ry="10" fill="url(#chairGradient)" />
  <rect x="395" y="400" width="10" height="30" fill="#3e2723" />
  
  <!-- Tables arranged vertically -->
  <!-- Table 1 (top) -->
  <rect x="240" y="450" width="120" height="70" rx="5" fill="url(#tableGradient)" />
  <rect x="245" y="520" width="10" height="30" fill="#3e2723" />
  <rect x="345" y="520" width="10" height="30" fill="#3e2723" />
  
  <!-- Chairs for Table 1 -->
  <rect x="210" y="470" width="20" height="20" rx="2" fill="url(#chairGradient)" />
  <rect x="215" y="490" width="10" height="30" fill="#3e2723" />
  
  <rect x="370" y="470" width="20" height="20" rx="2" fill="url(#chairGradient)" />
  <rect x="375" y="490" width="10" height="30" fill="#3e2723" />
  
  <!-- Table 2 (bottom) -->
  <rect x="240" y="650" width="120" height="70" rx="5" fill="url(#tableGradient)" />
  <rect x="245" y="720" width="10" height="30" fill="#3e2723" />
  <rect x="345" y="720" width="10" height="30" fill="#3e2723" />
  
  <!-- Chairs for Table 2 -->
  <rect x="210" y="670" width="20" height="20" rx="2" fill="url(#chairGradient)" />
  <rect x="215" y="690" width="10" height="30" fill="#3e2723" />
  
  <rect x="370" y="670" width="20" height="20" rx="2" fill="url(#chairGradient)" />
  <rect x="375" y="690" width="10" height="30" fill="#3e2723" />
  
  <!-- Decorative elements -->
  <!-- Wall decoration/art -->
  <rect x="240" y="80" width="120" height="80" fill="#d7ccc8" stroke="#5d4037" stroke-width="4" />
  
  <!-- Plants -->
  <ellipse cx="80" cy="550" rx="20" ry="10" fill="#5d4037" />
  <path d="M60,540 Q80,510 100,540" stroke="#388e3c" stroke-width="2" fill="none" />
  <path d="M65,540 Q80,500 95,540" stroke="#388e3c" stroke-width="2" fill="none" />
  <path d="M70,540 Q80,505 90,540" stroke="#388e3c" stroke-width="2" fill="none" />
  <path d="M75,540 Q80,515 85,540" stroke="#388e3c" stroke-width="2" fill="none" />
  
  <ellipse cx="520" cy="550" rx="20" ry="10" fill="#5d4037" />
  <path d="M500,540 Q520,510 540,540" stroke="#388e3c" stroke-width="2" fill="none" />
  <path d="M505,540 Q520,500 535,540" stroke="#388e3c" stroke-width="2" fill="none" />
  <path d="M510,540 Q520,505 530,540" stroke="#388e3c" stroke-width="2" fill="none" />
  <path d="M515,540 Q520,515 525,540" stroke="#388e3c" stroke-width="2" fill="none" />
  
  <!-- Lighting fixtures -->
  <path d="M150,50 L150,100" stroke="#5d4037" stroke-width="3" />
  <ellipse cx="150" cy="100" rx="20" ry="10" fill="#fff59d" opacity="0.9" />
  
  <path d="M300,50 L300,100" stroke="#5d4037" stroke-width="3" />
  <ellipse cx="300" cy="100" rx="20" ry="10" fill="#fff59d" opacity="0.9" />
  
  <path d="M450,50 L450,100" stroke="#5d4037" stroke-width="3" />
  <ellipse cx="450" cy="100" rx="20" ry="10" fill="#fff59d" opacity="0.9" />
  
  <!-- Ambient light effect -->
  <rect width="600" height="800" fill="rgba(244, 223, 186, 0.15)" />
</svg> 