<svg width="400" height="400" viewBox="0 0 400 400" xmlns="http://www.w3.org/2000/svg">
  <defs>
    <linearGradient id="skinGradient" x1="0%" y1="0%" x2="100%" y2="100%">
      <stop offset="0%" stop-color="#f5d0b0" />
      <stop offset="100%" stop-color="#e1b496" />
    </linearGradient>
    <linearGradient id="hairGradient" x1="0%" y1="0%" x2="100%" y2="100%">
      <stop offset="0%" stop-color="#6d4534" />
      <stop offset="100%" stop-color="#4a2e22" />
    </linearGradient>
    <linearGradient id="blazerGradient" x1="0%" y1="0%" x2="100%" y2="100%">
      <stop offset="0%" stop-color="#4b1d0f" />
      <stop offset="100%" stop-color="#3a170c" />
    </linearGradient>
    <linearGradient id="blouseGradient" x1="0%" y1="0%" x2="100%" y2="100%">
      <stop offset="0%" stop-color="#ffffff" />
      <stop offset="100%" stop-color="#f5f5f5" />
    </linearGradient>
  </defs>
  
  <!-- Background -->
  <circle cx="200" cy="200" r="200" fill="#f8e9d2" />
  
  <!-- Blazer -->
  <path d="M120,200 L120,400 L280,400 L280,200 C270,240 250,250 240,250 L160,250 C150,250 130,240 120,200 Z" fill="url(#blazerGradient)" />
  
  <!-- Blouse/Shirt -->
  <path d="M160,250 L160,400 L240,400 L240,250 L230,230 L200,250 L170,230 Z" fill="url(#blouseGradient)" />
  
  <!-- Necklace -->
  <path d="M180,230 C190,240 210,240 220,230" stroke="#f0c46e" stroke-width="3" fill="none" />
  <circle cx="200" cy="235" r="4" fill="#f0c46e" />
  
  <!-- Head -->
  <circle cx="200" cy="140" r="70" fill="url(#skinGradient)" />
  
  <!-- Hair -->
  <path d="M130,140 C130,120 150,70 200,70 C250,70 270,120 270,140 C270,150 260,180 260,180 L240,165 L230,190 L210,180 L190,190 L170,180 L160,190 L140,165 C140,165 130,150 130,140 Z" fill="url(#hairGradient)" />
  
  <!-- Hair highlights -->
  <path d="M150,110 C170,90 230,90 250,110" stroke="#8a5642" stroke-width="5" fill="none" opacity="0.5" />
  
  <!-- Eyes -->
  <ellipse cx="175" cy="130" rx="8" ry="6" fill="#3c2414" />
  <ellipse cx="225" cy="130" rx="8" ry="6" fill="#3c2414" />
  
  <!-- Eyebrows -->
  <path d="M165,120 C175,115 185,118 190,120" stroke="#6d4534" stroke-width="2" fill="none" />
  <path d="M235,120 C225,115 215,118 210,120" stroke="#6d4534" stroke-width="2" fill="none" />
  
  <!-- Nose -->
  <path d="M200,133 C200,133 195,145 200,150 C205,145 200,133 200,133 Z" fill="#e1b496" />
  
  <!-- Mouth -->
  <path d="M180,165 C190,172 210,172 220,165" stroke="#b6604b" stroke-width="2" fill="none" />
  
  <!-- Earrings -->
  <circle cx="135" cy="140" r="5" fill="#f0c46e" />
  <circle cx="265" cy="140" r="5" fill="#f0c46e" />
  
  <!-- Blush -->
  <circle cx="165" cy="155" r="10" fill="#e8a087" opacity="0.3" />
  <circle cx="235" cy="155" r="10" fill="#e8a087" opacity="0.3" />
</svg> 