<svg width="400" height="400" viewBox="0 0 400 400" xmlns="http://www.w3.org/2000/svg">
  <defs>
    <linearGradient id="skinGradient" x1="0%" y1="0%" x2="100%" y2="100%">
      <stop offset="0%" stop-color="#f5d0b0" />
      <stop offset="100%" stop-color="#e1b496" />
    </linearGradient>
    <linearGradient id="hairGradient" x1="0%" y1="0%" x2="100%" y2="100%">
      <stop offset="0%" stop-color="#4b2d1a" />
      <stop offset="100%" stop-color="#2d1a0f" />
    </linearGradient>
    <linearGradient id="chefCoatGradient" x1="0%" y1="0%" x2="100%" y2="100%">
      <stop offset="0%" stop-color="#ffffff" />
      <stop offset="100%" stop-color="#f0f0f0" />
    </linearGradient>
  </defs>
  
  <!-- Background -->
  <circle cx="200" cy="200" r="200" fill="#f8e9d2" />
  
  <!-- Chef coat -->
  <path d="M120,200 L120,400 L280,400 L280,200 C260,220 220,230 200,230 C180,230 140,220 120,200 Z" fill="url(#chefCoatGradient)" />
  
  <!-- Buttons -->
  <circle cx="180" cy="250" r="5" fill="#333" />
  <circle cx="180" cy="280" r="5" fill="#333" />
  <circle cx="180" cy="310" r="5" fill="#333" />
  <circle cx="180" cy="340" r="5" fill="#333" />
  <circle cx="220" cy="250" r="5" fill="#333" />
  <circle cx="220" cy="280" r="5" fill="#333" />
  <circle cx="220" cy="310" r="5" fill="#333" />
  <circle cx="220" cy="340" r="5" fill="#333" />
  
  <!-- Chef collar -->
  <path d="M120,200 L140,180 L170,200 L200,190 L230,200 L260,180 L280,200 L240,210 L200,220 L160,210 Z" fill="#f8f8f8" />
  
  <!-- Head -->
  <circle cx="200" cy="140" r="70" fill="url(#skinGradient)" />
  
  <!-- Hair -->
  <path d="M130,140 C130,120 150,70 200,70 C250,70 270,120 270,140 C270,150 260,160 260,160 C260,160 270,115 200,115 C130,115 140,160 140,160 C140,160 130,150 130,140 Z" fill="url(#hairGradient)" />
  
  <!-- Eyes -->
  <ellipse cx="175" cy="130" rx="8" ry="6" fill="#3c2414" />
  <ellipse cx="225" cy="130" rx="8" ry="6" fill="#3c2414" />
  
  <!-- Eyebrows -->
  <path d="M165,120 C175,115 185,118 190,120" stroke="#4b2d1a" stroke-width="2" fill="none" />
  <path d="M235,120 C225,115 215,118 210,120" stroke="#4b2d1a" stroke-width="2" fill="none" />
  
  <!-- Nose -->
  <path d="M200,133 C200,133 195,145 200,150 C205,145 200,133 200,133 Z" fill="#e1b496" />
  
  <!-- Mouth -->
  <path d="M180,165 C190,175 210,175 220,165" stroke="#b6604b" stroke-width="2" fill="none" />
  
  <!-- Mustache -->
  <path d="M175,155 C185,150 195,155 200,155 C205,155 215,150 225,155 C215,157 205,158 200,158 C195,158 185,157 175,155 Z" fill="#4b2d1a" />
  
  <!-- Chef's hat -->
  <path d="M130,90 C130,40 270,40 270,90 C270,95 265,100 260,100 L140,100 C135,100 130,95 130,90 Z" fill="#ffffff" />
  <rect x="140" y="100" width="120" height="10" fill="#ffffff" />
</svg> 