<?xml version="1.0" encoding="UTF-8" standalone="no"?>
<svg width="200" height="200" viewBox="0 0 200 200" xmlns="http://www.w3.org/2000/svg">
  <defs>
    <!-- Wooden Table Gradient -->
    <linearGradient id="woodGradient" x1="0%" y1="0%" x2="100%" y2="0%">
      <stop offset="0%" stop-color="#8B5A2B" />
      <stop offset="20%" stop-color="#A67C52" />
      <stop offset="40%" stop-color="#8B5A2B" />
      <stop offset="60%" stop-color="#A67C52" />
      <stop offset="80%" stop-color="#8B5A2B" />
      <stop offset="100%" stop-color="#A67C52" />
    </linearGradient>
    
    <!-- Glass Gradient -->
    <linearGradient id="glassGradient" x1="0%" y1="0%" x2="100%" y2="0%">
      <stop offset="0%" stop-color="#FFFFFF" stop-opacity="0.2" />
      <stop offset="25%" stop-color="#FFFFFF" stop-opacity="0.5" />
      <stop offset="50%" stop-color="#FFFFFF" stop-opacity="0.2" />
      <stop offset="75%" stop-color="#FFFFFF" stop-opacity="0.4" />
      <stop offset="100%" stop-color="#FFFFFF" stop-opacity="0.2" />
    </linearGradient>
    
    <!-- Glass Rim Highlight -->
    <linearGradient id="rimHighlight" x1="0%" y1="0%" x2="100%" y2="0%">
      <stop offset="0%" stop-color="#FFFFFF" stop-opacity="0.9" />
      <stop offset="20%" stop-color="#FFFFFF" stop-opacity="0.8" />
      <stop offset="100%" stop-color="#FFFFFF" stop-opacity="0.3" />
    </linearGradient>
    
    <!-- Water Gradient -->
    <linearGradient id="waterGradient" x1="0%" y1="0%" x2="0%" y2="100%">
      <stop offset="0%" stop-color="#E3F2FD" />
      <stop offset="50%" stop-color="#BBDEFB" />
      <stop offset="100%" stop-color="#90CAF9" />
    </linearGradient>
    
    <!-- Water Surface Gradient -->
    <linearGradient id="waterSurfaceGradient" x1="0%" y1="0%" x2="100%" y2="0%">
      <stop offset="0%" stop-color="#BBDEFB" />
      <stop offset="50%" stop-color="#E3F2FD" />
      <stop offset="100%" stop-color="#BBDEFB" />
    </linearGradient>
    
    <!-- Lime Slice Flesh Gradient -->
    <radialGradient id="limeFleshGradient" cx="50%" cy="50%" r="50%" fx="50%" fy="50%">
      <stop offset="0%" stop-color="#F0F4C3" />
      <stop offset="60%" stop-color="#DCEDC8" />
      <stop offset="100%" stop-color="#C5E1A5" />
    </radialGradient>
    
    <!-- Lime Rind Gradient -->
    <linearGradient id="limeRindGradient" x1="0%" y1="0%" x2="100%" y2="0%">
      <stop offset="0%" stop-color="#8BC34A" />
      <stop offset="50%" stop-color="#7CB342" />
      <stop offset="100%" stop-color="#689F38" />
    </linearGradient>
    
    <!-- Lime Texture Pattern -->
    <pattern id="limeTexture" width="10" height="10" patternUnits="userSpaceOnUse">
      <path d="M5,0 L10,5 L5,10 L0,5 Z" fill="#F0F4C3" fill-opacity="0.3" />
    </pattern>
    
    <!-- Ice Cube Gradient -->
    <linearGradient id="iceGradient" x1="0%" y1="0%" x2="100%" y2="100%">
      <stop offset="0%" stop-color="#FFFFFF" stop-opacity="0.7" />
      <stop offset="50%" stop-color="#E3F2FD" stop-opacity="0.4" />
      <stop offset="100%" stop-color="#BBDEFB" stop-opacity="0.2" />
    </linearGradient>
    
    <!-- Straw Gradient -->
    <linearGradient id="strawGradient" x1="0%" y1="0%" x2="100%" y2="0%">
      <stop offset="0%" stop-color="#81D4FA" />
      <stop offset="50%" stop-color="#4FC3F7" />
      <stop offset="100%" stop-color="#29B6F6" />
    </linearGradient>
    
    <!-- Straw Stripe Gradient -->
    <linearGradient id="strawStripeGradient" x1="0%" y1="0%" x2="100%" y2="0%">
      <stop offset="0%" stop-color="#FFFFFF" stop-opacity="0.3" />
      <stop offset="100%" stop-color="#FFFFFF" stop-opacity="0.1" />
    </linearGradient>
    
    <!-- Condensation Droplet Gradient -->
    <radialGradient id="dropletGradient" cx="30%" cy="30%" r="60%" fx="20%" fy="20%">
      <stop offset="0%" stop-color="#FFFFFF" stop-opacity="0.9" />
      <stop offset="70%" stop-color="#E3F2FD" stop-opacity="0.7" />
      <stop offset="100%" stop-color="#BBDEFB" stop-opacity="0.4" />
    </radialGradient>
    
    <!-- Bubble Gradient -->
    <radialGradient id="bubbleGradient" cx="30%" cy="30%" r="70%" fx="25%" fy="25%">
      <stop offset="0%" stop-color="#FFFFFF" stop-opacity="0.8" />
      <stop offset="70%" stop-color="#FFFFFF" stop-opacity="0.3" />
      <stop offset="100%" stop-color="#FFFFFF" stop-opacity="0.1" />
    </radialGradient>
    
    <!-- Glass Reflection Gradient -->
    <linearGradient id="glassHighlight" x1="0%" y1="0%" x2="100%" y2="0%">
      <stop offset="0%" stop-color="#FFFFFF" stop-opacity="0" />
      <stop offset="50%" stop-color="#FFFFFF" stop-opacity="0.3" />
      <stop offset="100%" stop-color="#FFFFFF" stop-opacity="0" />
    </linearGradient>
    
    <!-- Drop Shadow Filter -->
    <filter id="dropShadow" x="-20%" y="-20%" width="140%" height="140%">
      <feGaussianBlur in="SourceAlpha" stdDeviation="2" />
      <feOffset dx="0" dy="2" result="offsetblur" />
      <feComponentTransfer>
        <feFuncA type="linear" slope="0.3" />
      </feComponentTransfer>
      <feMerge>
        <feMergeNode />
        <feMergeNode in="SourceGraphic" />
      </feMerge>
    </filter>
    
    <!-- Glass Blur Filter -->
    <filter id="glassBlur" x="-10%" y="-10%" width="120%" height="120%">
      <feGaussianBlur in="SourceGraphic" stdDeviation="0.5" />
    </filter>
    
    <!-- Soft Shadow Filter -->
    <filter id="softShadow" x="-10%" y="-10%" width="120%" height="140%">
      <feGaussianBlur in="SourceAlpha" stdDeviation="1" />
      <feOffset dx="0" dy="1" result="offsetblur" />
      <feComponentTransfer>
        <feFuncA type="linear" slope="0.2" />
      </feComponentTransfer>
      <feMerge>
        <feMergeNode />
        <feMergeNode in="SourceGraphic" />
      </feMerge>
    </filter>
    
    <!-- Carbonation Filter -->
    <filter id="carbonation" x="-10%" y="-10%" width="120%" height="120%">
      <feTurbulence type="fractalNoise" baseFrequency="0.2" numOctaves="2" result="noise" />
      <feDisplacementMap in="SourceGraphic" in2="noise" scale="1" xChannelSelector="R" yChannelSelector="G" />
    </filter>
  </defs>
  
  <!-- Wooden Table -->
  <rect x="0" y="175" width="200" height="25" fill="url(#woodGradient)" />
  <path d="M0,180 L200,183 M0,190 L200,187 M0,195 L200,193" stroke="#5D4037" stroke-width="0.3" fill="none" opacity="0.3" />
  
  <!-- Glass Shadow on Table -->
  <ellipse cx="100" cy="175" rx="30" ry="5" fill="rgba(0,0,0,0.15)" filter="url(#softShadow)" />
  
  <!-- Water Glass -->
  <g filter="url(#dropShadow)">
    <!-- Glass Container -->
    <path d="M70,50 
             C70,45 130,45 130,50
             L125,170
             C125,175 75,175 75,170
             Z" 
          fill="#FFFFFF" fill-opacity="0.15" />
    
    <!-- Glass Outline -->
    <path d="M70,50 
             C70,45 130,45 130,50
             L125,170
             C125,175 75,175 75,170
             Z" 
          fill="none" 
          stroke="url(#glassGradient)" 
          stroke-width="1" />
    
    <!-- Glass Rim -->
    <ellipse cx="100" cy="50" rx="30" ry="5" fill="#FFFFFF" fill-opacity="0.2" />
    <ellipse cx="100" cy="50" rx="30" ry="5" fill="none" stroke="url(#rimHighlight)" stroke-width="0.5" />
    
    <!-- Glass Bottom -->
    <ellipse cx="100" cy="170" rx="25" ry="5" fill="#FFFFFF" fill-opacity="0.2" />
    <ellipse cx="100" cy="170" rx="25" ry="5" fill="none" stroke="url(#glassGradient)" stroke-width="0.5" />
    
    <!-- Water Liquid -->
    <path d="M75,60 
             C75,57 125,57 125,60
             L120,160
             C120,165 80,165 80,160
             Z" 
          fill="url(#waterGradient)" fill-opacity="0.8" />
    
    <!-- Water Surface -->
    <ellipse cx="100" cy="60" rx="25" ry="4" fill="url(#waterSurfaceGradient)" />
    
    <!-- Glass Reflection -->
    <path d="M80,60 
             L80,150
             C80,155 90,155 90,150
             L90,60
             Z" 
          fill="url(#glassHighlight)" />
  </g>
  
  <!-- Ice Cubes -->
  <g filter="url(#softShadow)">
    <!-- Ice Cube 1 -->
    <g transform="translate(85, 75) rotate(15)">
      <rect x="-10" y="-10" width="20" height="20" rx="2" ry="2" fill="url(#iceGradient)" />
      <rect x="-10" y="-10" width="20" height="20" rx="2" ry="2" fill="none" stroke="#FFFFFF" stroke-width="0.5" stroke-opacity="0.5" />
      <path d="M-6,-6 L6,6 M-6,6 L6,-6" stroke="#FFFFFF" stroke-width="0.5" stroke-opacity="0.3" />
    </g>
    
    <!-- Ice Cube 2 -->
    <g transform="translate(110, 90) rotate(-10)">
      <rect x="-8" y="-8" width="16" height="16" rx="2" ry="2" fill="url(#iceGradient)" />
      <rect x="-8" y="-8" width="16" height="16" rx="2" ry="2" fill="none" stroke="#FFFFFF" stroke-width="0.5" stroke-opacity="0.5" />
      <path d="M-4,-4 L4,4 M-4,4 L4,-4" stroke="#FFFFFF" stroke-width="0.5" stroke-opacity="0.3" />
    </g>
    
    <!-- Ice Cube 3 -->
    <g transform="translate(95, 110) rotate(30)">
      <rect x="-12" y="-9" width="24" height="18" rx="2" ry="2" fill="url(#iceGradient)" />
      <rect x="-12" y="-9" width="24" height="18" rx="2" ry="2" fill="none" stroke="#FFFFFF" stroke-width="0.5" stroke-opacity="0.5" />
      <path d="M-8,-5 L8,5 M-8,5 L8,-5" stroke="#FFFFFF" stroke-width="0.5" stroke-opacity="0.3" />
    </g>
  </g>
  
  <!-- Lime Slices -->
  <g filter="url(#softShadow)">
    <!-- Floating Lime Slice 1 -->
    <g transform="translate(90, 80) rotate(-5)">
      <ellipse cx="0" cy="0" rx="15" ry="15" fill="url(#limeFleshGradient)" />
      <ellipse cx="0" cy="0" rx="15" ry="15" fill="url(#limeTexture)" fill-opacity="0.3" />
      <ellipse cx="0" cy="0" rx="13" ry="13" fill="none" stroke="#AED581" stroke-width="0.3" />
      <ellipse cx="0" cy="0" rx="15" ry="15" fill="none" stroke="url(#limeRindGradient)" stroke-width="2" />
      
      <!-- Lime Segments -->
      <path d="M0,-10 L0,10 M-9,-5 L9,5 M-9,5 L9,-5" stroke="#DCEDC8" stroke-width="0.5" stroke-opacity="0.7" />
      <circle cx="0" cy="0" r="3" fill="#DCEDC8" fill-opacity="0.5" />
    </g>
    
    <!-- Glass Rim Lime Slice -->
    <g transform="translate(120, 50) rotate(15)">
      <path d="M0,0 
               A15,5 0 0,1 15,0
               A15,5 0 0,1 0,0
               Z" 
            fill="url(#limeFleshGradient)" />
      <path d="M0,0 
               A15,5 0 0,1 15,0
               A15,5 0 0,1 0,0
               Z" 
            fill="none" 
            stroke="url(#limeRindGradient)" 
            stroke-width="1.5" />
    </g>
  </g>
  
  <!-- Straw -->
  <g filter="url(#dropShadow)">
    <!-- Straw Base -->
    <path d="M135,30 
             L110,60
             L112,62
             L137,32
             Z" 
          fill="url(#strawGradient)" />
    
    <!-- Straw Highlight -->
    <path d="M135.5,30.5 
             L110.5,60.5" 
          stroke="url(#strawStripeGradient)" 
          stroke-width="1" 
          stroke-linecap="round" />
    
    <!-- Submerged Straw (slightly visible through glass) -->
    <path d="M110,60 
             L105,160" 
          stroke="url(#strawGradient)" 
          stroke-width="2" 
          stroke-opacity="0.5" 
          fill="none" />
  </g>
  
  <!-- Bubbles -->
  <g>
    <circle cx="95" cy="80" r="2" fill="url(#bubbleGradient)" />
    <circle cx="100" cy="95" r="1.5" fill="url(#bubbleGradient)" />
    <circle cx="105" cy="85" r="1" fill="url(#bubbleGradient)" />
    <circle cx="110" cy="100" r="2" fill="url(#bubbleGradient)" />
    <circle cx="102" cy="110" r="1.2" fill="url(#bubbleGradient)" />
    <circle cx="90" cy="105" r="1.5" fill="url(#bubbleGradient)" />
    <circle cx="115" cy="115" r="1" fill="url(#bubbleGradient)" />
    <circle cx="100" cy="125" r="1.8" fill="url(#bubbleGradient)" />
    <circle cx="85" cy="120" r="1.3" fill="url(#bubbleGradient)" />
    <circle cx="97" cy="135" r="1.1" fill="url(#bubbleGradient)" />
    <circle cx="108" cy="130" r="1.4" fill="url(#bubbleGradient)" />
    <circle cx="93" cy="145" r="1.6" fill="url(#bubbleGradient)" />
    <circle cx="103" cy="155" r="1.2" fill="url(#bubbleGradient)" />
    
    <!-- Rising Bubble Trails -->
    <path d="M95,155 Q94,145 95,135 Q96,125 95,115 Q94,105 95,95" 
          fill="none" stroke="url(#bubbleGradient)" stroke-width="0.5" stroke-dasharray="1,3" />
    <path d="M110,150 Q109,140 110,130 Q111,120 110,110 Q109,100 110,90" 
          fill="none" stroke="url(#bubbleGradient)" stroke-width="0.5" stroke-dasharray="1,3" />
    <path d="M102,148 Q101,138 102,128 Q103,118 102,108" 
          fill="none" stroke="url(#bubbleGradient)" stroke-width="0.5" stroke-dasharray="1,3" />
  </g>
  
  <!-- Condensation Droplets on Glass -->
  <g>
    <circle cx="70" cy="80" r="1.5" fill="url(#dropletGradient)" />
    <circle cx="72" cy="95" r="2" fill="url(#dropletGradient)" />
    <circle cx="75" cy="110" r="1" fill="url(#dropletGradient)" />
    <circle cx="72" cy="125" r="1.8" fill="url(#dropletGradient)" />
    <circle cx="75" cy="140" r="1.2" fill="url(#dropletGradient)" />
    <circle cx="71" cy="155" r="1.5" fill="url(#dropletGradient)" />
    
    <circle cx="130" cy="75" r="1.2" fill="url(#dropletGradient)" />
    <circle cx="127" cy="90" r="1.8" fill="url(#dropletGradient)" />
    <circle cx="125" cy="105" r="1" fill="url(#dropletGradient)" />
    <circle cx="128" cy="120" r="1.5" fill="url(#dropletGradient)" />
    <circle cx="123" cy="135" r="1.7" fill="url(#dropletGradient)" />
    <circle cx="127" cy="150" r="1.3" fill="url(#dropletGradient)" />
    
    <!-- Droplet Trails -->
    <path d="M75,100 C78,102 78,105 75,108" fill="url(#dropletGradient)" />
    <path d="M125,130 C122,133 122,136 125,138" fill="url(#dropletGradient)" />
    <path d="M73,60 Q72,65 73,70 Q74,75 72,80" 
          fill="none" stroke="url(#dropletGradient)" stroke-width="1" />
    <path d="M127,60 Q128,65 127,70 Q126,75 128,80" 
          fill="none" stroke="url(#dropletGradient)" stroke-width="1" />
  </g>
  
  <!-- Water Label (Mineral Water) -->
  <g transform="translate(100, 120) rotate(-5)">
    <rect x="-20" y="-10" width="40" height="20" rx="2" ry="2" 
          fill="#E3F2FD" fill-opacity="0.7" 
          stroke="#29B6F6" stroke-width="0.5" />
    
    <!-- Label Highlights -->
    <rect x="-19" y="-9" width="38" height="1" rx="0.5" ry="0.5" 
          fill="#FFFFFF" fill-opacity="0.8" />
    
    <!-- Label Text -->
    <text x="0" y="0" 
          font-family="Arial, sans-serif" font-size="5" font-weight="bold" 
          text-anchor="middle" dominant-baseline="middle" 
          fill="#0288D1">MINERAL</text>
    <text x="0" y="6" 
          font-family="Arial, sans-serif" font-size="4" 
          text-anchor="middle" dominant-baseline="middle" 
          fill="#0288D1">WATER</text>
  </g>
</svg> 