<?xml version="1.0" encoding="UTF-8" standalone="no"?>
<svg width="200" height="200" viewBox="0 0 200 200" xmlns="http://www.w3.org/2000/svg">
  <defs>
    <!-- Can body gradient -->
    <linearGradient id="canGradient" x1="0%" y1="0%" x2="100%" y2="0%">
      <stop offset="0%" stop-color="#e63946" />
      <stop offset="45%" stop-color="#e63946" />
      <stop offset="55%" stop-color="#d62b39" />
      <stop offset="100%" stop-color="#d62b39" />
    </linearGradient>
    
    <!-- Can top gradient -->
    <linearGradient id="canTopGradient" x1="0%" y1="0%" x2="100%" y2="0%">
      <stop offset="0%" stop-color="#f2f2f2" />
      <stop offset="45%" stop-color="#f2f2f2" />
      <stop offset="55%" stop-color="#e6e6e6" />
      <stop offset="100%" stop-color="#e6e6e6" />
    </linearGradient>
    
    <!-- Ice cube gradient -->
    <linearGradient id="iceGradient" x1="0%" y1="0%" x2="100%" y2="100%">
      <stop offset="0%" stop-color="rgba(255,255,255,0.9)" />
      <stop offset="100%" stop-color="rgba(220,240,255,0.7)" />
    </linearGradient>
    
    <!-- Glass gradient -->
    <linearGradient id="glassGradient" x1="0%" y1="0%" x2="100%" y2="0%">
      <stop offset="0%" stop-color="rgba(255,255,255,0.9)" />
      <stop offset="20%" stop-color="rgba(255,255,255,0.3)" />
      <stop offset="50%" stop-color="rgba(255,255,255,0.1)" />
      <stop offset="80%" stop-color="rgba(255,255,255,0.3)" />
      <stop offset="100%" stop-color="rgba(255,255,255,0.9)" />
    </linearGradient>
    
    <!-- Cola gradient -->
    <linearGradient id="colaGradient" x1="0%" y1="0%" x2="0%" y2="100%">
      <stop offset="0%" stop-color="#3d1d0a" />
      <stop offset="100%" stop-color="#59291a" />
    </linearGradient>
    
    <!-- Straw gradient -->
    <linearGradient id="strawGradient" x1="0%" y1="0%" x2="100%" y2="0%">
      <stop offset="0%" stop-color="#ff8a8a" />
      <stop offset="50%" stop-color="#ff6b6b" />
      <stop offset="100%" stop-color="#ff5252" />
    </linearGradient>
    
    <!-- Table surface gradient -->
    <radialGradient id="tableGradient" cx="50%" cy="50%" r="70%" fx="40%" fy="40%">
      <stop offset="0%" stop-color="#967259" />
      <stop offset="100%" stop-color="#7d5941" />
    </radialGradient>
    
    <!-- Can label gradient -->
    <linearGradient id="labelGradient" x1="0%" y1="0%" x2="0%" y2="100%">
      <stop offset="0%" stop-color="#ffffff" />
      <stop offset="100%" stop-color="#f5f5f5" />
    </linearGradient>
    
    <!-- Condensation filter -->
    <filter id="condensation" x="-10%" y="-10%" width="120%" height="120%">
      <feTurbulence type="fractalNoise" baseFrequency="0.15" numOctaves="2" seed="3" />
      <feDisplacementMap in="SourceAlpha" scale="5" />
    </filter>
    
    <!-- Soft shadow filter -->
    <filter id="softShadow" x="-20%" y="-20%" width="140%" height="140%">
      <feGaussianBlur in="SourceAlpha" stdDeviation="3" />
      <feOffset dx="0" dy="3" result="offsetblur" />
      <feComponentTransfer>
        <feFuncA type="linear" slope="0.3" />
      </feComponentTransfer>
      <feMerge>
        <feMergeNode />
        <feMergeNode in="SourceGraphic" />
      </feMerge>
    </filter>
    
    <!-- Bubble filter for cola -->
    <filter id="bubbleFilter" x="0%" y="0%" width="100%" height="100%">
      <feTurbulence type="turbulence" baseFrequency="0.05" numOctaves="2" seed="5" />
      <feDisplacementMap in="SourceGraphic" scale="2" />
    </filter>
    
    <!-- Highlight filter -->
    <filter id="highlight" x="0%" y="0%" width="100%" height="100%">
      <feGaussianBlur in="SourceAlpha" stdDeviation="1" />
      <feComponentTransfer>
        <feFuncA type="linear" slope="0.3" />
      </feComponentTransfer>
    </filter>
  </defs>
  
  <!-- Wooden table surface -->
  <ellipse cx="100" cy="175" rx="85" ry="20" fill="url(#tableGradient)" />
  
  <!-- Group for drink can -->
  <g transform="translate(50, 90)">
    <!-- Can shadow on table -->
    <ellipse cx="25" cy="85" rx="15" ry="5" fill="rgba(0,0,0,0.15)" />
    
    <!-- Can body -->
    <g filter="url(#softShadow)">
      <!-- Main can body -->
      <path d="M10,0 
               C10,-5 40,-5 40,0
               L40,70
               C40,75 10,75 10,70
               L10,0 Z" 
            fill="url(#canGradient)" />
      
      <!-- Can top -->
      <ellipse cx="25" cy="0" rx="15" ry="5" fill="url(#canTopGradient)" />
      
      <!-- Can opening -->
      <path d="M20,-2 
               C20,-3 25,-4 30,-2
               C29.5,-1 25.5,-1 25,0
               C24.5,-1 20.5,-1 20,-2 Z" 
            fill="#a6a6a6" />
      
      <!-- Can highlights -->
      <path d="M13,10 L13,60" stroke="white" stroke-width="1" opacity="0.3" />
      <path d="M37,10 L37,60" stroke="rgba(0,0,0,0.1)" stroke-width="1" opacity="0.3" />
      
      <!-- Can ring at bottom -->
      <path d="M10,65 
               C10,70 40,70 40,65" 
            fill="none" 
            stroke="#c62536" 
            stroke-width="1" />
      
      <!-- Can label -->
      <path d="M12,15 
               C12,15 38,15 38,15
               L38,50
               C38,50 12,50 12,50
               L12,15 Z"
            fill="url(#labelGradient)"
            opacity="0.9" />
            
      <!-- Label design elements -->
      <text x="25" y="30" font-family="Arial" font-size="8" text-anchor="middle" fill="#e63946" font-weight="bold">COLA</text>
      <path d="M15,35 L35,35" stroke="#e63946" stroke-width="0.7" />
      <text x="25" y="45" font-family="Arial" font-size="5" text-anchor="middle" fill="#333333">Classic</text>
      
      <!-- Condensation drops -->
      <g filter="url(#condensation)">
        <circle cx="15" cy="22" r="0.6" fill="white" opacity="0.7" />
        <circle cx="18" cy="40" r="0.8" fill="white" opacity="0.7" />
        <circle cx="13" cy="55" r="0.7" fill="white" opacity="0.7" />
        <circle cx="35" cy="25" r="0.6" fill="white" opacity="0.7" />
        <circle cx="32" cy="45" r="0.8" fill="white" opacity="0.7" />
        <circle cx="37" cy="60" r="0.7" fill="white" opacity="0.7" />
      </g>
    </g>
  </g>
  
  <!-- Group for glass with cola -->
  <g transform="translate(120, 90)">
    <!-- Glass shadow on table -->
    <ellipse cx="25" cy="85" rx="20" ry="5" fill="rgba(0,0,0,0.15)" />
    
    <!-- Main glass group -->
    <g filter="url(#softShadow)">
      <!-- Glass bottom -->
      <path d="M10,85 
               C10,82 40,82 40,85 
               L10,85 Z" 
            fill="#e6e6e6" />
      
      <!-- Glass body with cola -->
      <path d="M10,85 
               C10,82 40,82 40,85 
               L45,15 
               C45,10 5,10 5,15 
               L10,85 Z" 
            fill="url(#colaGradient)" />
            
      <!-- Cola bubbles overlay -->
      <path d="M11,82 
               L16,20 
               C16,15 34,15 34,20 
               L39,82" 
            fill="none" 
            stroke="white" 
            stroke-width="0.5" 
            opacity="0.1" 
            filter="url(#bubbleFilter)" />
      
      <!-- Glass outline -->
      <path d="M10,85 
               C10,82 40,82 40,85 
               L45,15 
               C45,10 5,10 5,15 
               L10,85 Z" 
            fill="none" 
            stroke="url(#glassGradient)" 
            stroke-width="2" />
            
      <!-- Glass rim highlight -->
      <path d="M5,15 
               C5,10 45,10 45,15" 
            fill="none" 
            stroke="white" 
            stroke-width="1" 
            opacity="0.7" />
      
      <!-- Condensation drops on glass -->
      <g filter="url(#condensation)">
        <path d="M12,80 L17,20" fill="none" stroke="white" stroke-width="0.8" opacity="0.15" />
        <path d="M38,80 L43,20" fill="none" stroke="white" stroke-width="0.8" opacity="0.15" />
        <circle cx="14" cy="60" r="0.8" fill="white" opacity="0.3" />
        <circle cx="16" cy="40" r="0.6" fill="white" opacity="0.3" />
        <circle cx="12" cy="30" r="1" fill="white" opacity="0.3" />
        <circle cx="35" cy="55" r="0.8" fill="white" opacity="0.3" />
        <circle cx="38" cy="35" r="0.6" fill="white" opacity="0.3" />
        <circle cx="42" cy="25" r="1" fill="white" opacity="0.3" />
      </g>
    </g>
    
    <!-- Ice cubes -->
    <g filter="url(#highlight)">
      <rect x="15" y="20" width="12" height="12" rx="2" ry="2" transform="rotate(15, 21, 26)" fill="url(#iceGradient)" opacity="0.7" />
      <rect x="25" y="30" width="10" height="10" rx="2" ry="2" transform="rotate(-10, 30, 35)" fill="url(#iceGradient)" opacity="0.7" />
    </g>
    
    <!-- Straw -->
    <g>
      <path d="M20,-5 
               L20,5 
               C20,8 25,8 25,5 
               L25,40" 
            fill="none" 
            stroke="url(#strawGradient)" 
            stroke-width="3" 
            stroke-linecap="round" />
            
      <!-- Straw highlight -->
      <path d="M20,-5 
               L20,5 
               C20,8 25,8 25,5 
               L25,40" 
            fill="none" 
            stroke="white" 
            stroke-width="1" 
            stroke-linecap="round" 
            opacity="0.3" />
    </g>
  </g>
</svg> 