<svg xmlns="http://www.w3.org/2000/svg" width="100%" height="100%" viewBox="0 0 1200 800" preserveAspectRatio="xMidYMid meet">
  <!-- Definitions -->
  <defs>
    <!-- Gradient for top bun -->
    <radialGradient id="topBunGradient" cx="50%" cy="50%" r="70%" fx="30%" fy="30%">
      <stop offset="0%" style="stop-color:#FFECB3;stop-opacity:1" />
      <stop offset="80%" style="stop-color:#E6B266;stop-opacity:1" />
      <stop offset="100%" style="stop-color:#D2A44A;stop-opacity:1" />
    </radialGradient>
    
    <!-- Gradient for bottom bun -->
    <radialGradient id="bottomBunGradient" cx="50%" cy="50%" r="70%" fx="30%" fy="30%">
      <stop offset="0%" style="stop-color:#FFECB3;stop-opacity:1" />
      <stop offset="80%" style="stop-color:#E6B266;stop-opacity:1" />
      <stop offset="100%" style="stop-color:#D2A44A;stop-opacity:1" />
    </radialGradient>
    
    <!-- Gradient for meat patty -->
    <radialGradient id="pattyGradient" cx="50%" cy="50%" r="70%" fx="30%" fy="30%">
      <stop offset="0%" style="stop-color:#A52A2A;stop-opacity:1" />
      <stop offset="60%" style="stop-color:#8B0000;stop-opacity:1" />
      <stop offset="100%" style="stop-color:#800000;stop-opacity:1" />
    </radialGradient>
    
    <!-- Pattern for meat texture -->
    <pattern id="meatPattern" patternUnits="userSpaceOnUse" width="30" height="30">
      <rect width="30" height="30" fill="#8B0000"/>
      <circle cx="15" cy="15" r="7" fill="#A52A2A"/>
      <circle cx="0" cy="0" r="5" fill="#B22222"/>
      <circle cx="30" cy="30" r="5" fill="#B22222"/>
    </pattern>
    
    <!-- Gradient for cheese -->
    <linearGradient id="cheeseGradient" x1="0%" y1="0%" x2="100%" y2="0%">
      <stop offset="0%" style="stop-color:#FFC107;stop-opacity:1" />
      <stop offset="100%" style="stop-color:#FFD54F;stop-opacity:1" />
    </linearGradient>
    
    <!-- Gradient for tomato -->
    <radialGradient id="tomatoGradient" cx="50%" cy="50%" r="70%" fx="50%" fy="50%">
      <stop offset="0%" style="stop-color:#FF5252;stop-opacity:1" />
      <stop offset="90%" style="stop-color:#D32F2F;stop-opacity:1" />
    </radialGradient>
    
    <!-- Gradient for lettuce -->
    <linearGradient id="lettuceGradient" x1="0%" y1="0%" x2="100%" y2="0%">
      <stop offset="0%" style="stop-color:#66BB6A;stop-opacity:1" />
      <stop offset="50%" style="stop-color:#43A047;stop-opacity:1" />
      <stop offset="100%" style="stop-color:#2E7D32;stop-opacity:1" />
    </linearGradient>
    
    <!-- Gradient for onion -->
    <linearGradient id="onionGradient" x1="0%" y1="0%" x2="100%" y2="0%">
      <stop offset="0%" style="stop-color:#E0E0E0;stop-opacity:1" />
      <stop offset="50%" style="stop-color:#F5F5F5;stop-opacity:1" />
      <stop offset="100%" style="stop-color:#BDBDBD;stop-opacity:1" />
    </linearGradient>
    
    <!-- Drop shadow filter -->
    <filter id="dropShadow" x="-20%" y="-20%" width="140%" height="140%">
      <feGaussianBlur in="SourceAlpha" stdDeviation="15" />
      <feOffset dx="5" dy="5" result="offsetblur" />
      <feComponentTransfer>
        <feFuncA type="linear" slope="0.5" />
      </feComponentTransfer>
      <feMerge>
        <feMergeNode />
        <feMergeNode in="SourceGraphic" />
      </feMerge>
    </filter>
  </defs>
  
  <!-- Main burger composition (with animation) -->
  <g id="burger" transform="translate(600, 400)" filter="url(#dropShadow)">
    <!-- Floating animation for entire burger -->
    <animateTransform 
      attributeName="transform" 
      type="translate" 
      values="600,400; 600,390; 600,400" 
      dur="6s" 
      repeatCount="indefinite" 
      additive="sum"
    />
    
    <!-- Bottom Bun -->
    <g id="bottomBun">
      <path d="M-200,120 C-200,170 200,170 200,120 L200,100 L-200,100 Z" fill="url(#bottomBunGradient)" />
      
      <!-- Bottom bun crumbs -->
      <circle cx="-150" cy="120" r="5" fill="#E6B266">
        <animate attributeName="cy" values="120;125;120" dur="3s" repeatCount="indefinite" />
      </circle>
      <circle cx="150" cy="120" r="4" fill="#E6B266">
        <animate attributeName="cy" values="120;125;120" dur="2.5s" repeatCount="indefinite" />
      </circle>
      <circle cx="0" cy="130" r="6" fill="#E6B266">
        <animate attributeName="cy" values="130;135;130" dur="4s" repeatCount="indefinite" />
      </circle>
    </g>
    
    <!-- Lettuce layers -->
    <g id="lettuce">
      <path d="M-190,90 C-160,40 -100,60 -60,90 C-30,60 0,40 30,90 C60,60 100,40 160,90 C190,60 200,80 180,90 C140,70 100,100 60,90 C30,110 0,80 -30,90 C-60,110 -100,80 -130,90 C-160,110 -200,80 -190,90 Z" fill="url(#lettuceGradient)" />
      
      <!-- Inner lettuce pieces with independent movement -->
      <path d="M-150,80 C-130,60 -110,70 -90,80 C-70,60 -50,70 -30,80 Z" fill="#66BB6A">
        <animate attributeName="d" values="M-150,80 C-130,60 -110,70 -90,80 C-70,60 -50,70 -30,80 Z; M-150,85 C-130,65 -110,75 -90,85 C-70,65 -50,75 -30,85 Z; M-150,80 C-130,60 -110,70 -90,80 C-70,60 -50,70 -30,80 Z" dur="3s" repeatCount="indefinite" />
      </path>
      <path d="M30,80 C50,60 70,70 90,80 C110,60 130,70 150,80 Z" fill="#66BB6A">
        <animate attributeName="d" values="M30,80 C50,60 70,70 90,80 C110,60 130,70 150,80 Z; M30,85 C50,65 70,75 90,85 C110,65 130,75 150,85 Z; M30,80 C50,60 70,70 90,80 C110,60 130,70 150,80 Z" dur="4s" repeatCount="indefinite" />
      </path>
    </g>
    
    <!-- Tomato slices -->
    <g id="tomato">
      <ellipse cx="-100" cy="70" rx="90" ry="15" fill="url(#tomatoGradient)" />
      <ellipse cx="100" cy="70" rx="90" ry="15" fill="url(#tomatoGradient)" />
      
      <!-- Tomato seeds with subtle movement -->
      <circle cx="-130" cy="70" r="2" fill="#FFEB3B">
        <animate attributeName="r" values="2;3;2" dur="2s" repeatCount="indefinite" />
      </circle>
      <circle cx="-100" cy="70" r="2" fill="#FFEB3B">
        <animate attributeName="r" values="2;3;2" dur="2.5s" repeatCount="indefinite" />
      </circle>
      <circle cx="-70" cy="70" r="2" fill="#FFEB3B">
        <animate attributeName="r" values="2;3;2" dur="3s" repeatCount="indefinite" />
      </circle>
      <circle cx="70" cy="70" r="2" fill="#FFEB3B">
        <animate attributeName="r" values="2;3;2" dur="2s" repeatCount="indefinite" />
      </circle>
      <circle cx="100" cy="70" r="2" fill="#FFEB3B">
        <animate attributeName="r" values="2;3;2" dur="2.5s" repeatCount="indefinite" />
      </circle>
      <circle cx="130" cy="70" r="2" fill="#FFEB3B">
        <animate attributeName="r" values="2;3;2" dur="3s" repeatCount="indefinite" />
      </circle>
    </g>
    
    <!-- Cheese with dripping effect -->
    <g id="cheese">
      <path d="M-190,50 L190,50 L170,70 L-170,70 Z" fill="url(#cheeseGradient)" />
      
      <!-- Cheese drips -->
      <path d="M-150,70 L-150,85 L-140,70" fill="url(#cheeseGradient)">
        <animate attributeName="d" values="M-150,70 L-150,85 L-140,70; M-150,70 L-150,95 L-140,70; M-150,70 L-150,85 L-140,70" dur="5s" repeatCount="indefinite" />
      </path>
      <path d="M-50,70 L-50,80 L-40,70" fill="url(#cheeseGradient)">
        <animate attributeName="d" values="M-50,70 L-50,80 L-40,70; M-50,70 L-50,90 L-40,70; M-50,70 L-50,80 L-40,70" dur="6s" repeatCount="indefinite" />
      </path>
      <path d="M50,70 L50,85 L60,70" fill="url(#cheeseGradient)">
        <animate attributeName="d" values="M50,70 L50,85 L60,70; M50,70 L50,95 L60,70; M50,70 L50,85 L60,70" dur="4s" repeatCount="indefinite" />
      </path>
      <path d="M150,70 L150,80 L160,70" fill="url(#cheeseGradient)">
        <animate attributeName="d" values="M150,70 L150,80 L160,70; M150,70 L150,90 L160,70; M150,70 L150,80 L160,70" dur="7s" repeatCount="indefinite" />
      </path>
    </g>
    
    <!-- Onion rings -->
    <g id="onion">
      <path d="M-160,40 C-150,20 -50,20 -40,40 C-50,60 -150,60 -160,40 Z" fill="url(#onionGradient)" />
      <path d="M40,40 C50,20 150,20 160,40 C150,60 50,60 40,40 Z" fill="url(#onionGradient)" />
      
      <!-- Subtle pulse animation for onions -->
      <animateTransform 
        attributeName="transform" 
        type="scale" 
        values="1;1.02;1" 
        dur="3s" 
        repeatCount="indefinite" 
        additive="sum"
      />
    </g>
    
    <!-- Meat patty with sizzle effect -->
    <g id="patty">
      <path d="M-180,0 C-180,-30 180,-30 180,0 C180,30 -180,30 -180,0 Z" fill="url(#pattyGradient)" />
      
      <!-- Grill marks -->
      <line x1="-150" y1="-20" x2="-150" y2="20" stroke="#600000" stroke-width="5" />
      <line x1="-100" y1="-20" x2="-100" y2="20" stroke="#600000" stroke-width="5" />
      <line x1="-50" y1="-20" x2="-50" y2="20" stroke="#600000" stroke-width="5" />
      <line x1="0" y1="-20" x2="0" y2="20" stroke="#600000" stroke-width="5" />
      <line x1="50" y1="-20" x2="50" y2="20" stroke="#600000" stroke-width="5" />
      <line x1="100" y1="-20" x2="100" y2="20" stroke="#600000" stroke-width="5" />
      <line x1="150" y1="-20" x2="150" y2="20" stroke="#600000" stroke-width="5" />
      
      <!-- Sizzle bubbles -->
      <circle cx="-140" cy="0" r="3" fill="#FFA000">
        <animate attributeName="cy" values="0;-40;-80;-120" dur="2s" repeatCount="indefinite" />
        <animate attributeName="opacity" values="0;1;0" dur="2s" repeatCount="indefinite" />
      </circle>
      <circle cx="-70" cy="0" r="2" fill="#FFA000">
        <animate attributeName="cy" values="0;-50;-100;-150" dur="3s" repeatCount="indefinite" />
        <animate attributeName="opacity" values="0;1;0" dur="3s" repeatCount="indefinite" />
      </circle>
      <circle cx="0" cy="0" r="4" fill="#FFA000">
        <animate attributeName="cy" values="0;-60;-120;-180" dur="2.5s" repeatCount="indefinite" />
        <animate attributeName="opacity" values="0;1;0" dur="2.5s" repeatCount="indefinite" />
      </circle>
      <circle cx="70" cy="0" r="3" fill="#FFA000">
        <animate attributeName="cy" values="0;-40;-80;-120" dur="2.2s" repeatCount="indefinite" />
        <animate attributeName="opacity" values="0;1;0" dur="2.2s" repeatCount="indefinite" />
      </circle>
      <circle cx="140" cy="0" r="2" fill="#FFA000">
        <animate attributeName="cy" values="0;-70;-140;-210" dur="3.5s" repeatCount="indefinite" />
        <animate attributeName="opacity" values="0;1;0" dur="3.5s" repeatCount="indefinite" />
      </circle>
    </g>
    
    <!-- Top Bun with sesame seeds -->
    <g id="topBun">
      <path d="M-200,-110 C-200,-160 200,-160 200,-110 L200,-70 L-200,-70 Z" fill="url(#topBunGradient)" />
      
      <!-- Sesame seeds with subtle popping effect -->
      <ellipse cx="-150" cy="-140" rx="7" ry="10" fill="#FFF9C4" transform="rotate(-15)">
        <animate attributeName="ry" values="10;11;10" dur="3s" repeatCount="indefinite" />
      </ellipse>
      <ellipse cx="-100" cy="-145" rx="8" ry="11" fill="#FFF9C4" transform="rotate(10)">
        <animate attributeName="ry" values="11;12;11" dur="4s" repeatCount="indefinite" />
      </ellipse>
      <ellipse cx="-50" cy="-150" rx="7" ry="10" fill="#FFF9C4" transform="rotate(-5)">
        <animate attributeName="ry" values="10;11;10" dur="3.5s" repeatCount="indefinite" />
      </ellipse>
      <ellipse cx="0" cy="-148" rx="8" ry="11" fill="#FFF9C4" transform="rotate(5)">
        <animate attributeName="ry" values="11;12;11" dur="4.5s" repeatCount="indefinite" />
      </ellipse>
      <ellipse cx="50" cy="-150" rx="7" ry="10" fill="#FFF9C4" transform="rotate(-10)">
        <animate attributeName="ry" values="10;11;10" dur="2.8s" repeatCount="indefinite" />
      </ellipse>
      <ellipse cx="100" cy="-145" rx="8" ry="11" fill="#FFF9C4" transform="rotate(8)">
        <animate attributeName="ry" values="11;12;11" dur="3.2s" repeatCount="indefinite" />
      </ellipse>
      <ellipse cx="150" cy="-140" rx="7" ry="10" fill="#FFF9C4" transform="rotate(-12)">
        <animate attributeName="ry" values="10;11;10" dur="3.7s" repeatCount="indefinite" />
      </ellipse>
    </g>
  </g>
  
  <!-- Steam effects at the top -->
  <g id="steam" opacity="0.6" transform="translate(600, 50)">
    <path d="M-30,0 C-40,30 -10,50 -20,80 C-30,110 0,130 0,150" fill="none" stroke="#FFFFFF" stroke-width="5" stroke-linecap="round">
      <animate attributeName="d" values="M-30,0 C-40,30 -10,50 -20,80 C-30,110 0,130 0,150; M-30,0 C-35,30 -5,50 -15,80 C-25,110 5,130 5,150; M-30,0 C-40,30 -10,50 -20,80 C-30,110 0,130 0,150" dur="4s" repeatCount="indefinite" />
      <animate attributeName="opacity" values="0;0.8;0" dur="4s" repeatCount="indefinite" />
    </path>
    <path d="M30,0 C20,30 50,50 40,80 C30,110 60,130 60,150" fill="none" stroke="#FFFFFF" stroke-width="5" stroke-linecap="round">
      <animate attributeName="d" values="M30,0 C20,30 50,50 40,80 C30,110 60,130 60,150; M30,0 C25,30 55,50 45,80 C35,110 65,130 65,150; M30,0 C20,30 50,50 40,80 C30,110 60,130 60,150" dur="5s" repeatCount="indefinite" />
      <animate attributeName="opacity" values="0;0.7;0" dur="5s" repeatCount="indefinite" />
    </path>
    <path d="M0,0 C-10,30 20,50 10,80 C0,110 30,130 30,150" fill="none" stroke="#FFFFFF" stroke-width="5" stroke-linecap="round">
      <animate attributeName="d" values="M0,0 C-10,30 20,50 10,80 C0,110 30,130 30,150; M0,0 C-5,30 25,50 15,80 C5,110 35,130 35,150; M0,0 C-10,30 20,50 10,80 C0,110 30,130 30,150" dur="6s" repeatCount="indefinite" />
      <animate attributeName="opacity" values="0;0.9;0" dur="6s" repeatCount="indefinite" />
    </path>
  </g>
  
  <!-- Floating ingredients in background (with reduced opacity for better integration) -->
  <g id="floatingIngredients" opacity="0.5">
    <!-- Lettuce piece -->
    <path d="M200,200 C220,180 250,190 270,200 C290,180 310,190 330,200 Z" fill="url(#lettuceGradient)" opacity="0.7">
      <animateTransform 
        attributeName="transform" 
        type="translate" 
        values="0,0; 50,100; 100,50; 150,150; 200,0; 150,-50; 100,-100; 50,-50; 0,0" 
        dur="20s" 
        repeatCount="indefinite" 
      />
      <animateTransform 
        attributeName="transform" 
        type="rotate" 
        values="0; 360" 
        dur="20s" 
        repeatCount="indefinite" 
        additive="sum"
      />
    </path>
    
    <!-- Onion ring -->
    <path d="M900,500 C910,480 950,480 960,500 C950,520 910,520 900,500 Z" fill="url(#onionGradient)" opacity="0.7">
      <animateTransform 
        attributeName="transform" 
        type="translate" 
        values="0,0; -50,-100; -100,-50; -150,-150; -200,0; -150,50; -100,100; -50,50; 0,0" 
        dur="22s" 
        repeatCount="indefinite" 
      />
      <animateTransform 
        attributeName="transform" 
        type="rotate" 
        values="0; -360" 
        dur="22s" 
        repeatCount="indefinite" 
        additive="sum"
      />
    </path>
    
    <!-- Tomato slice -->
    <ellipse cx="300" cy="700" rx="60" ry="15" fill="url(#tomatoGradient)" opacity="0.7">
      <animateTransform 
        attributeName="transform" 
        type="translate" 
        values="0,0; 100,-50; 150,-100; 200,-50; 150,0; 100,50; 50,100; 0,50; 0,0" 
        dur="25s" 
        repeatCount="indefinite" 
      />
      <animateTransform 
        attributeName="transform" 
        type="rotate" 
        values="0; 360" 
        dur="25s" 
        repeatCount="indefinite" 
        additive="sum"
      />
    </path>
    
    <!-- Cheese slice -->
    <path d="M800,200 L900,200 L880,220 L820,220 Z" fill="url(#cheeseGradient)" opacity="0.7">
      <animateTransform 
        attributeName="transform" 
        type="translate" 
        values="0,0; -50,-50; -100,-100; -150,-50; -100,0; -50,50; 0,100; 50,50; 0,0" 
        dur="18s" 
        repeatCount="indefinite" 
      />
      <animateTransform 
        attributeName="transform" 
        type="rotate" 
        values="0; -360" 
        dur="18s" 
        repeatCount="indefinite" 
        additive="sum"
      />
    </path>
    
    <!-- Small patty -->
    <path d="M200,600 C200,585 250,585 250,600 C250,615 200,615 200,600 Z" fill="url(#pattyGradient)" opacity="0.7">
      <animateTransform 
        attributeName="transform" 
        type="translate" 
        values="0,0; 100,50; 200,0; 100,-50; 0,0" 
        dur="15s" 
        repeatCount="indefinite" 
      />
      <animateTransform 
        attributeName="transform" 
        type="rotate" 
        values="0; 360" 
        dur="15s" 
        repeatCount="indefinite" 
        additive="sum"
      />
    </path>
  </g>
</svg> 