<?xml version="1.0" encoding="UTF-8" standalone="no"?>
<svg width="200" height="200" viewBox="0 0 200 200" xmlns="http://www.w3.org/2000/svg">
  <defs>
    <!-- Wooden Table Gradient -->
    <linearGradient id="woodGradient" x1="0%" y1="0%" x2="100%" y2="0%">
      <stop offset="0%" stop-color="#8B5A2B" />
      <stop offset="20%" stop-color="#A67C52" />
      <stop offset="40%" stop-color="#8B5A2B" />
      <stop offset="60%" stop-color="#A67C52" />
      <stop offset="80%" stop-color="#8B5A2B" />
      <stop offset="100%" stop-color="#A67C52" />
    </linearGradient>
    
    <!-- Ceramic Plate Gradient -->
    <radialGradient id="plateGradient" cx="50%" cy="40%" r="60%" fx="40%" fy="40%">
      <stop offset="0%" stop-color="#FFFFFF" />
      <stop offset="70%" stop-color="#F8F8F8" />
      <stop offset="100%" stop-color="#E8E8E8" />
    </radialGradient>
    
    <!-- Ajvar Spread Gradient -->
    <radialGradient id="ajvarGradient" cx="50%" cy="50%" r="70%" fx="40%" fy="40%">
      <stop offset="0%" stop-color="#D84315" />
      <stop offset="60%" stop-color="#BF360C" />
      <stop offset="100%" stop-color="#A52714" />
    </radialGradient>
    
    <!-- Ajvar Surface Gradient -->
    <radialGradient id="ajvarSurfaceGradient" cx="50%" cy="50%" r="80%" fx="45%" fy="40%">
      <stop offset="0%" stop-color="#E64A19" />
      <stop offset="70%" stop-color="#D84315" />
      <stop offset="100%" stop-color="#BF360C" />
    </radialGradient>
    
    <!-- Pepper Flakes Gradient -->
    <linearGradient id="pepperFlakesGradient" x1="0%" y1="0%" x2="100%" y2="100%">
      <stop offset="0%" stop-color="#D32F2F" />
      <stop offset="100%" stop-color="#B71C1C" />
    </linearGradient>
    
    <!-- Oil Shine Gradient -->
    <radialGradient id="oilShineGradient" cx="50%" cy="50%" r="80%" fx="40%" fy="40%">
      <stop offset="0%" stop-color="#FFEB3B" stop-opacity="0.7" />
      <stop offset="60%" stop-color="#FFC107" stop-opacity="0.3" />
      <stop offset="100%" stop-color="#FF9800" stop-opacity="0" />
    </radialGradient>
    
    <!-- Garlic Chunk Gradient -->
    <linearGradient id="garlicGradient" x1="0%" y1="0%" x2="100%" y2="100%">
      <stop offset="0%" stop-color="#FAFAFA" />
      <stop offset="100%" stop-color="#F5F5F5" />
    </linearGradient>
    
    <!-- Bread Slice Gradient -->
    <linearGradient id="breadGradient" x1="0%" y1="0%" x2="0%" y2="100%">
      <stop offset="0%" stop-color="#FFECB3" />
      <stop offset="100%" stop-color="#FFE082" />
    </linearGradient>
    
    <!-- Bread Crust Gradient -->
    <linearGradient id="crustGradient" x1="0%" y1="0%" x2="100%" y2="100%">
      <stop offset="0%" stop-color="#FFA000" />
      <stop offset="100%" stop-color="#FF8F00" />
    </linearGradient>
    
    <!-- Herb Gradient -->
    <linearGradient id="herbGradient" x1="0%" y1="0%" x2="100%" y2="100%">
      <stop offset="0%" stop-color="#558B2F" />
      <stop offset="100%" stop-color="#33691E" />
    </linearGradient>
    
    <!-- Pepper Texture Pattern -->
    <pattern id="pepperTexture" width="10" height="10" patternUnits="userSpaceOnUse">
      <rect width="10" height="10" fill="#D84315" fill-opacity="0.1" />
      <path d="M0,0 L5,5 M5,0 L0,5" stroke="#BF360C" stroke-width="0.5" opacity="0.2" />
    </pattern>
    
    <!-- Drop Shadow Filter -->
    <filter id="dropShadow" x="-20%" y="-20%" width="140%" height="140%">
      <feGaussianBlur in="SourceAlpha" stdDeviation="2" />
      <feOffset dx="0" dy="2" result="offsetblur" />
      <feComponentTransfer>
        <feFuncA type="linear" slope="0.3" />
      </feComponentTransfer>
      <feMerge>
        <feMergeNode />
        <feMergeNode in="SourceGraphic" />
      </feMerge>
    </filter>
    
    <!-- Soft Shadow Filter -->
    <filter id="softShadow" x="-10%" y="-10%" width="120%" height="140%">
      <feGaussianBlur in="SourceAlpha" stdDeviation="1" />
      <feOffset dx="0" dy="1" result="offsetblur" />
      <feComponentTransfer>
        <feFuncA type="linear" slope="0.2" />
      </feComponentTransfer>
      <feMerge>
        <feMergeNode />
        <feMergeNode in="SourceGraphic" />
      </feMerge>
    </filter>
    
    <!-- Inner Shadow Filter -->
    <filter id="innerShadow" x="-20%" y="-20%" width="140%" height="140%">
      <feGaussianBlur in="SourceAlpha" stdDeviation="1.5" />
      <feOffset dx="0" dy="1" />
      <feComposite in2="SourceAlpha" operator="arithmetic" k2="-1" k3="1" />
      <feComponentTransfer>
        <feFuncA type="linear" slope="0.4" />
      </feComponentTransfer>
      <feComposite in2="SourceGraphic" operator="in" />
      <feMerge>
        <feMergeNode />
        <feMergeNode in="SourceGraphic" />
      </feMerge>
    </filter>
    
    <!-- Highlight Filter -->
    <filter id="highlightFilter" x="-10%" y="-10%" width="120%" height="120%">
      <feGaussianBlur in="SourceAlpha" stdDeviation="1" />
      <feComponentTransfer>
        <feFuncA type="linear" slope="0.3" />
      </feComponentTransfer>
      <feComposite in="SourceGraphic" />
    </filter>
  </defs>
  
  <!-- Wooden Table -->
  <rect x="0" y="175" width="200" height="25" fill="url(#woodGradient)" />
  <path d="M0,180 L200,183 M0,190 L200,187 M0,195 L200,193" stroke="#5D4037" stroke-width="0.3" fill="none" opacity="0.3" />
  
  <!-- Plate Shadow on Table -->
  <ellipse cx="100" cy="175" rx="65" ry="10" fill="rgba(0,0,0,0.15)" filter="url(#softShadow)" />
  
  <!-- Ceramic Plate -->
  <g filter="url(#dropShadow)">
    <ellipse cx="100" cy="150" rx="70" ry="20" fill="url(#plateGradient)" />
    <ellipse cx="100" cy="150" rx="65" ry="17" fill="none" stroke="#E0E0E0" stroke-width="0.8" />
    <ellipse cx="85" cy="145" rx="20" ry="6" fill="#FFFFFF" opacity="0.2" filter="url(#highlightFilter)" />
  </g>
  
  <!-- Ajvar Spread -->
  <g filter="url(#dropShadow)" transform="translate(100, 145)">
    <!-- Main Ajvar Mound -->
    <ellipse cx="0" cy="0" rx="45" ry="10" fill="url(#ajvarGradient)" />
    
    <!-- Ajvar Surface -->
    <ellipse cx="0" cy="-3" rx="35" ry="8" fill="url(#ajvarSurfaceGradient)" />
    <ellipse cx="0" cy="-3" rx="35" ry="8" fill="url(#pepperTexture)" />
    
    <!-- Surface Detail and Texture -->
    <g filter="url(#innerShadow)">
      <path d="M-25,-5 C-15,-3 -5,-6 5,-5 C15,-4 25,-6 30,-4" 
            fill="none" 
            stroke="#BF360C" 
            stroke-width="0.5" 
            opacity="0.6" />
            
      <path d="M-30,-2 C-20,0 -10,-2 0,-1 C10,0 20,-2 25,0" 
            fill="none" 
            stroke="#BF360C" 
            stroke-width="0.5" 
            opacity="0.6" />
    </g>
    
    <!-- Oil Shine Spots -->
    <ellipse cx="-15" cy="-5" rx="8" ry="3" fill="url(#oilShineGradient)" opacity="0.6" />
    <ellipse cx="12" cy="-4" rx="6" ry="2" fill="url(#oilShineGradient)" opacity="0.5" />
    <ellipse cx="0" cy="-1" rx="5" ry="1.5" fill="url(#oilShineGradient)" opacity="0.4" />
    
    <!-- Pepper Flakes -->
    <g>
      <path d="M-20,-6 L-18,-5 L-20,-4 Z" fill="url(#pepperFlakesGradient)" />
      <path d="M-10,-5 L-8,-3 L-10,-1 Z" fill="url(#pepperFlakesGradient)" />
      <path d="M5,-7 L7,-5 L5,-3 Z" fill="url(#pepperFlakesGradient)" />
      <path d="M15,-4 L17,-3 L15,-2 Z" fill="url(#pepperFlakesGradient)" />
      <path d="M-5,-2 L-3,-1 L-5,0 Z" fill="url(#pepperFlakesGradient)" />
      <circle cx="-25" cy="-3" r="0.7" fill="url(#pepperFlakesGradient)" />
      <circle cx="-15" cy="-2" r="0.5" fill="url(#pepperFlakesGradient)" />
      <circle cx="10" cy="-5" r="0.6" fill="url(#pepperFlakesGradient)" />
      <circle cx="20" cy="-2" r="0.5" fill="url(#pepperFlakesGradient)" />
      <circle cx="0" cy="-6" r="0.7" fill="url(#pepperFlakesGradient)" />
    </g>
    
    <!-- Garlic Chunks -->
    <g>
      <circle cx="-18" cy="-1" r="1" fill="url(#garlicGradient)" />
      <circle cx="-5" cy="-4" r="0.8" fill="url(#garlicGradient)" />
      <circle cx="7" cy="-2" r="1.2" fill="url(#garlicGradient)" />
      <circle cx="18" cy="-4" r="0.9" fill="url(#garlicGradient)" />
    </g>
    
    <!-- Herb Garnish -->
    <g>
      <path d="M-22,-8 C-23,-9 -22,-10 -21,-9 C-20,-10 -19,-9 -20,-8" fill="url(#herbGradient)" />
      <path d="M5,-9 C4,-10 5,-11 6,-10 C7,-11 8,-10 7,-9" fill="url(#herbGradient)" />
      <path d="M25,-6 C24,-7 25,-8 26,-7 C27,-8 28,-7 27,-6" fill="url(#herbGradient)" />
      <path d="M-12,-7 C-13,-8 -12,-9 -11,-8" fill="url(#herbGradient)" />
      <path d="M15,-7 C16,-8 17,-7 16,-6" fill="url(#herbGradient)" />
    </g>
  </g>
  
  <!-- Bread Slice with Ajvar Spread -->
  <g filter="url(#dropShadow)" transform="translate(140, 135) rotate(-15)">
    <!-- Bread Slice -->
    <rect x="-20" y="-10" width="40" height="20" rx="2" ry="2" fill="url(#breadGradient)" />
    <rect x="-20" y="-10" width="40" height="20" rx="2" ry="2" fill="none" stroke="url(#crustGradient)" stroke-width="0.8" />
    
    <!-- Ajvar on Bread -->
    <g transform="translate(0, -5)">
      <path d="M-15,0 
              C-12,-3 12,-3 15,0
              C18,3 18,5 15,8
              C12,10 -12,10 -15,8
              C-18,5 -18,3 -15,0 Z" 
            fill="url(#ajvarSurfaceGradient)" 
            opacity="0.9" />
      
      <!-- Oil Shine on Spread -->
      <ellipse cx="-5" cy="3" rx="4" ry="1.5" fill="url(#oilShineGradient)" opacity="0.5" />
      <ellipse cx="7" cy="5" rx="3" ry="1" fill="url(#oilShineGradient)" opacity="0.4" />
      
      <!-- Pepper Flakes on Spread -->
      <circle cx="-7" cy="6" r="0.5" fill="url(#pepperFlakesGradient)" />
      <circle cx="2" cy="7" r="0.4" fill="url(#pepperFlakesGradient)" />
      <circle cx="9" cy="4" r="0.6" fill="url(#pepperFlakesGradient)" />
    </g>
  </g>
  
  <!-- Small Plate with More Ajvar -->
  <g filter="url(#dropShadow)" transform="translate(60, 140)">
    <!-- Small Plate -->
    <ellipse cx="0" cy="0" rx="25" ry="8" fill="url(#plateGradient)" />
    
    <!-- Ajvar Dollop -->
    <ellipse cx="0" cy="-2" rx="15" ry="4" fill="url(#ajvarGradient)" />
    <ellipse cx="0" cy="-4" rx="10" ry="3" fill="url(#ajvarSurfaceGradient)" />
    
    <!-- Oil Shine -->
    <ellipse cx="3" cy="-5" rx="3" ry="1" fill="url(#oilShineGradient)" opacity="0.5" />
    
    <!-- Spoon Handle -->
    <rect x="10" y="-3" width="15" height="2" rx="1" ry="1" fill="#C0C0C0" />
  </g>
  
  <!-- Herb Garnish Sprinkled Around -->
  <g filter="url(#softShadow)">
    <path d="M70,155 C69,154 70,153 71,154 C72,153 73,154 72,155" fill="url(#herbGradient)" />
    <path d="M130,160 C129,159 130,158 131,159 C132,158 133,159 132,160" fill="url(#herbGradient)" />
    <path d="M155,145 C154,144 155,143 156,144" fill="url(#herbGradient)" />
  </g>
</svg>
