<?xml version="1.0" encoding="UTF-8" standalone="no"?>
<svg width="200" height="200" viewBox="0 0 200 200" xmlns="http://www.w3.org/2000/svg">
  <defs>
    <!-- Wooden Table Gradient -->
    <linearGradient id="woodGradient" x1="0%" y1="0%" x2="100%" y2="0%">
      <stop offset="0%" stop-color="#8B5A2B" />
      <stop offset="20%" stop-color="#A67C52" />
      <stop offset="40%" stop-color="#8B5A2B" />
      <stop offset="60%" stop-color="#A67C52" />
      <stop offset="80%" stop-color="#8B5A2B" />
      <stop offset="100%" stop-color="#A67C52" />
    </linearGradient>
    
    <!-- Ceramic Plate Gradient -->
    <radialGradient id="plateGradient" cx="50%" cy="40%" r="60%" fx="40%" fy="40%">
      <stop offset="0%" stop-color="#FFFFFF" />
      <stop offset="70%" stop-color="#F8F8F8" />
      <stop offset="100%" stop-color="#E8E8E8" />
    </radialGradient>
    
    <!-- Kajmak Base Gradient -->
    <linearGradient id="kajmakGradient" x1="0%" y1="0%" x2="100%" y2="100%">
      <stop offset="0%" stop-color="#FFF8E1" />
      <stop offset="50%" stop-color="#FFECB3" />
      <stop offset="100%" stop-color="#FFE082" />
    </linearGradient>
    
    <!-- Kajmak Surface Gradient -->
    <radialGradient id="kajmakSurfaceGradient" cx="50%" cy="50%" r="70%" fx="30%" fy="30%">
      <stop offset="0%" stop-color="#FFF8E1" />
      <stop offset="60%" stop-color="#FFECB3" />
      <stop offset="100%" stop-color="#FFE082" />
    </radialGradient>
    
    <!-- Kajmak Fold Highlight -->
    <linearGradient id="kajmakHighlightGradient" x1="0%" y1="0%" x2="100%" y2="100%">
      <stop offset="0%" stop-color="#FFFFFF" stop-opacity="0.9" />
      <stop offset="100%" stop-color="#FFFDE7" stop-opacity="0.5" />
    </linearGradient>
    
    <!-- Kajmak Fold Shadow -->
    <linearGradient id="kajmakShadowGradient" x1="0%" y1="0%" x2="100%" y2="100%">
      <stop offset="0%" stop-color="#FFA000" stop-opacity="0.3" />
      <stop offset="100%" stop-color="#FF8F00" stop-opacity="0.1" />
    </linearGradient>
    
    <!-- Kajmak Texture Pattern -->
    <pattern id="kajmakTexture" width="10" height="10" patternUnits="userSpaceOnUse">
      <rect width="10" height="10" fill="#FFF8E1" fill-opacity="0.05" />
      <circle cx="5" cy="5" r="3" fill="#FFFDE7" fill-opacity="0.1" />
    </pattern>
    
    <!-- Bread Gradient -->
    <linearGradient id="breadGradient" x1="0%" y1="0%" x2="100%" y2="100%">
      <stop offset="0%" stop-color="#FFECB3" />
      <stop offset="50%" stop-color="#FFE082" />
      <stop offset="100%" stop-color="#FFD54F" />
    </linearGradient>
    
    <!-- Bread Crust Gradient -->
    <linearGradient id="breadCrustGradient" x1="0%" y1="0%" x2="100%" y2="100%">
      <stop offset="0%" stop-color="#E65100" />
      <stop offset="50%" stop-color="#EF6C00" />
      <stop offset="100%" stop-color="#F57C00" />
    </linearGradient>
    
    <!-- Herb Garnish Gradient -->
    <linearGradient id="herbGradient" x1="0%" y1="0%" x2="100%" y2="100%">
      <stop offset="0%" stop-color="#66BB6A" />
      <stop offset="50%" stop-color="#43A047" />
      <stop offset="100%" stop-color="#2E7D32" />
    </linearGradient>
    
    <!-- Paprika Spice Gradient -->
    <radialGradient id="paprikaGradient" cx="50%" cy="50%" r="50%" fx="50%" fy="50%">
      <stop offset="0%" stop-color="#FF7043" />
      <stop offset="70%" stop-color="#F4511E" />
      <stop offset="100%" stop-color="#E64A19" />
    </radialGradient>
    
    <!-- Drop Shadow Filter -->
    <filter id="dropShadow" x="-20%" y="-20%" width="140%" height="140%">
      <feGaussianBlur in="SourceAlpha" stdDeviation="2" />
      <feOffset dx="0" dy="2" result="offsetblur" />
      <feComponentTransfer>
        <feFuncA type="linear" slope="0.3" />
      </feComponentTransfer>
      <feMerge>
        <feMergeNode />
        <feMergeNode in="SourceGraphic" />
      </feMerge>
    </filter>
    
    <!-- Soft Shadow Filter -->
    <filter id="softShadow" x="-10%" y="-10%" width="120%" height="140%">
      <feGaussianBlur in="SourceAlpha" stdDeviation="1" />
      <feOffset dx="0" dy="1" result="offsetblur" />
      <feComponentTransfer>
        <feFuncA type="linear" slope="0.2" />
      </feComponentTransfer>
      <feMerge>
        <feMergeNode />
        <feMergeNode in="SourceGraphic" />
      </feMerge>
    </filter>
    
    <!-- Inner Shadow Filter for Kajmak Folds -->
    <filter id="innerShadow" x="-20%" y="-20%" width="140%" height="140%">
      <feGaussianBlur in="SourceAlpha" stdDeviation="1" />
      <feOffset dx="0" dy="1" />
      <feComposite in2="SourceAlpha" operator="arithmetic" k2="-1" k3="1" />
      <feComponentTransfer>
        <feFuncA type="linear" slope="0.3" />
      </feComponentTransfer>
      <feComposite in2="SourceGraphic" operator="in" />
      <feMerge>
        <feMergeNode />
        <feMergeNode in="SourceGraphic" />
      </feMerge>
    </filter>
    
    <!-- Highlight Filter -->
    <filter id="highlightFilter" x="-10%" y="-10%" width="120%" height="120%">
      <feGaussianBlur in="SourceAlpha" stdDeviation="1" />
      <feComponentTransfer>
        <feFuncA type="linear" slope="0.3" />
      </feComponentTransfer>
      <feComposite in="SourceGraphic" />
    </filter>
  </defs>
  
  <!-- Wooden Table -->
  <rect x="0" y="175" width="200" height="25" fill="url(#woodGradient)" />
  <path d="M0,180 L200,183 M0,190 L200,187 M0,195 L200,193" stroke="#5D4037" stroke-width="0.3" fill="none" opacity="0.3" />
  
  <!-- Plate Shadow on Table -->
  <ellipse cx="100" cy="175" rx="65" ry="10" fill="rgba(0,0,0,0.15)" filter="url(#softShadow)" />
  
  <!-- Ceramic Plate -->
  <g filter="url(#dropShadow)">
    <ellipse cx="100" cy="150" rx="70" ry="20" fill="url(#plateGradient)" />
    <ellipse cx="100" cy="150" rx="65" ry="17" fill="none" stroke="#E0E0E0" stroke-width="0.8" />
    <ellipse cx="85" cy="145" rx="20" ry="6" fill="#FFFFFF" opacity="0.2" filter="url(#highlightFilter)" />
  </g>
  
  <!-- Main Kajmak Spread -->
  <g filter="url(#softShadow)">
    <!-- Base Shape -->
    <path d="M70,135 
             C65,132 75,125 100,128 
             C125,125 135,132 130,135 
             C125,145 75,145 70,135 Z" 
          fill="url(#kajmakGradient)" />
    
    <!-- Surface Details -->
    <ellipse cx="100" cy="135" rx="30" ry="10" fill="url(#kajmakSurfaceGradient)" />
    <ellipse cx="100" cy="135" rx="30" ry="10" fill="url(#kajmakTexture)" />
    
    <!-- Kajmak Folds and Texture -->
    <g filter="url(#innerShadow)">
      <!-- Fold 1 -->
      <path d="M85,130 
               C87,127 93,128 95,130 
               C97,132 93,134 90,133 
               C87,132 83,133 85,130 Z" 
            fill="url(#kajmakGradient)" />
      
      <!-- Fold 2 -->
      <path d="M105,132 
               C107,129 113,130 115,132 
               C117,134 113,136 110,135 
               C107,134 103,135 105,132 Z" 
            fill="url(#kajmakGradient)" />
      
      <!-- Fold 3 -->
      <path d="M75,135 
               C77,132 83,133 85,135 
               C87,137 83,139 80,138 
               C77,137 73,138 75,135 Z" 
            fill="url(#kajmakGradient)" />
    </g>
    
    <!-- Kajmak Highlights -->
    <path d="M80,130 C85,128 95,129 100,130" 
          stroke="url(#kajmakHighlightGradient)" 
          stroke-width="1.5" 
          fill="none" 
          opacity="0.7" />
    <path d="M100,130 C105,129 115,128 120,130" 
          stroke="url(#kajmakHighlightGradient)" 
          stroke-width="1.5" 
          fill="none" 
          opacity="0.7" />
    
    <!-- Kajmak Shadows -->
    <path d="M80,138 C85,140 95,141 100,140" 
          stroke="url(#kajmakShadowGradient)" 
          stroke-width="1" 
          fill="none" 
          opacity="0.5" />
    <path d="M100,140 C105,141 115,140 120,138" 
          stroke="url(#kajmakShadowGradient)" 
          stroke-width="1" 
          fill="none" 
          opacity="0.5" />
  </g>
  
  <!-- Bread Slices with Kajmak -->
  <g filter="url(#dropShadow)">
    <!-- Bread Slice 1 with Kajmak -->
    <g transform="translate(60, 150) rotate(-10)">
      <path d="M-15,-10 
               Q-13,-14 -7,-14 
               L7,-14 
               Q13,-14 15,-10 
               Q17,-6 15,0 
               Q13,4 7,4 
               L-7,4 
               Q-13,4 -15,0 
               Q-17,-6 -15,-10 Z" 
            fill="url(#breadGradient)" />
      
      <!-- Bread Crust -->
      <path d="M-15,-10 
               Q-13,-14 -7,-14 
               L7,-14 
               Q13,-14 15,-10 
               Q17,-6 15,0 
               Q13,4 7,4 
               L-7,4 
               Q-13,4 -15,0 
               Q-17,-6 -15,-10 Z" 
            fill="none" 
            stroke="url(#breadCrustGradient)" 
            stroke-width="0.8" 
            opacity="0.7" />
      
      <!-- Bread Texture -->
      <path d="M-10,-8 L10,-8 M-12,-4 L12,-4 M-10,0 L10,0" 
            stroke="#FFE082" 
            stroke-width="0.5" 
            stroke-dasharray="2,2" 
            opacity="0.5" />
      
      <!-- Kajmak on Bread -->
      <path d="M-7,-8 
               Q-3,-11 2,-9 
               Q7,-7 8,-4 
               Q9,-1 5,0 
               Q0,1 -5,-1 
               Q-9,-3 -7,-8 Z" 
            fill="url(#kajmakSurfaceGradient)" 
            filter="url(#softShadow)" />
      
      <!-- Kajmak Highlight -->
      <path d="M-3,-7 Q0,-9 3,-6" 
            stroke="url(#kajmakHighlightGradient)" 
            stroke-width="0.8" 
            fill="none" 
            opacity="0.7" />
    </g>
    
    <!-- Bread Slice 2 with Kajmak -->
    <g transform="translate(140, 150) rotate(10)">
      <path d="M-15,-10 
               Q-13,-14 -7,-14 
               L7,-14 
               Q13,-14 15,-10 
               Q17,-6 15,0 
               Q13,4 7,4 
               L-7,4 
               Q-13,4 -15,0 
               Q-17,-6 -15,-10 Z" 
            fill="url(#breadGradient)" />
      
      <!-- Bread Crust -->
      <path d="M-15,-10 
               Q-13,-14 -7,-14 
               L7,-14 
               Q13,-14 15,-10 
               Q17,-6 15,0 
               Q13,4 7,4 
               L-7,4 
               Q-13,4 -15,0 
               Q-17,-6 -15,-10 Z" 
            fill="none" 
            stroke="url(#breadCrustGradient)" 
            stroke-width="0.8" 
            opacity="0.7" />
      
      <!-- Bread Texture -->
      <path d="M-10,-8 L10,-8 M-12,-4 L12,-4 M-10,0 L10,0" 
            stroke="#FFE082" 
            stroke-width="0.5" 
            stroke-dasharray="2,2" 
            opacity="0.5" />
      
      <!-- Kajmak on Bread -->
      <path d="M-3,-9 
               Q1,-11 5,-9 
               Q9,-7 8,-3 
               Q7,0 3,1 
               Q-1,2 -5,-1 
               Q-7,-4 -3,-9 Z" 
            fill="url(#kajmakSurfaceGradient)" 
            filter="url(#softShadow)" />
      
      <!-- Kajmak Highlight -->
      <path d="M0,-8 Q3,-9 5,-7" 
            stroke="url(#kajmakHighlightGradient)" 
            stroke-width="0.8" 
            fill="none" 
            opacity="0.7" />
    </g>
  </g>
  
  <!-- Butter Knife -->
  <g filter="url(#dropShadow)" transform="translate(130, 120) rotate(-30)">
    <!-- Knife Blade -->
    <path d="M-15,2 
             L15,-2 
             L16,0 
             L14,2 
             L-15,5 Z" 
          fill="#E0E0E0" 
          stroke="#BDBDBD" 
          stroke-width="0.3" />
    
    <!-- Knife Handle -->
    <path d="M-15,2 
             L-30,3 
             L-30,5 
             L-15,5 Z" 
          fill="#9E9E9E" 
          stroke="#757575" 
          stroke-width="0.3" />
    
    <!-- Kajmak on Knife -->
    <path d="M0,0 
             Q5,-1 10,0 
             Q12,1 10,2 
             Q5,3 0,2 
             Q-2,1 0,0 Z" 
          fill="url(#kajmakSurfaceGradient)" 
          opacity="0.8" />
  </g>
  
  <!-- Herb Garnish -->
  <g filter="url(#dropShadow)">
    <!-- Parsley Sprig 1 -->
    <g transform="translate(75, 130) rotate(20)">
      <path d="M0,0 
               C-3,-5 -7,-6 -5,-8 
               C-2,-10 3,-8 3,-5 
               C3,-2 2,0 0,0 Z" 
            fill="url(#herbGradient)" />
      
      <!-- Leaf Vein -->
      <path d="M0,0 L-2,-5" 
            stroke="#2E7D32" 
            stroke-width="0.3" 
            opacity="0.7" />
    </g>
    
    <!-- Parsley Sprig 2 -->
    <g transform="translate(115, 125) rotate(-15)">
      <path d="M0,0 
               C-2,-4 -5,-5 -3,-7 
               C-1,-9 4,-7 3,-4 
               C2,-1 1,0 0,0 Z" 
            fill="url(#herbGradient)" />
      
      <!-- Leaf Vein -->
      <path d="M0,0 L-1,-4" 
            stroke="#2E7D32" 
            stroke-width="0.3" 
            opacity="0.7" />
    </g>
  </g>
  
  <!-- Paprika Spice Sprinkle -->
  <g opacity="0.8">
    <circle cx="90" cy="132" r="0.8" fill="url(#paprikaGradient)" />
    <circle cx="110" cy="130" r="0.6" fill="url(#paprikaGradient)" />
    <circle cx="95" cy="138" r="0.7" fill="url(#paprikaGradient)" />
    <circle cx="105" cy="135" r="0.5" fill="url(#paprikaGradient)" />
    <circle cx="100" cy="130" r="0.6" fill="url(#paprikaGradient)" />
    <circle cx="85" cy="135" r="0.5" fill="url(#paprikaGradient)" />
    <circle cx="115" cy="133" r="0.7" fill="url(#paprikaGradient)" />
  </g>
</svg>
