<?xml version="1.0" encoding="UTF-8" standalone="no"?>
<svg width="200" height="200" viewBox="0 0 200 200" xmlns="http://www.w3.org/2000/svg">
  <defs>
    <!-- Wooden Table Gradient -->
    <linearGradient id="woodGradient" x1="0%" y1="0%" x2="100%" y2="0%">
      <stop offset="0%" stop-color="#8B5A2B" />
      <stop offset="20%" stop-color="#A67C52" />
      <stop offset="40%" stop-color="#8B5A2B" />
      <stop offset="60%" stop-color="#A67C52" />
      <stop offset="80%" stop-color="#8B5A2B" />
      <stop offset="100%" stop-color="#A67C52" />
    </linearGradient>
    
    <!-- Ceramic Plate Gradient -->
    <radialGradient id="plateGradient" cx="50%" cy="40%" r="60%" fx="40%" fy="40%">
      <stop offset="0%" stop-color="#FFFFFF" />
      <stop offset="70%" stop-color="#F8F8F8" />
      <stop offset="100%" stop-color="#E8E8E8" />
    </radialGradient>
    
    <!-- Lepinja Base Gradient -->
    <radialGradient id="lepinjaGradient" cx="50%" cy="50%" r="70%" fx="40%" fy="40%">
      <stop offset="0%" stop-color="#FFF8E1" />
      <stop offset="60%" stop-color="#FFECB3" />
      <stop offset="100%" stop-color="#FFE082" />
    </radialGradient>
    
    <!-- Lepinja Top Surface Gradient -->
    <radialGradient id="lepinjaSurfaceGradient" cx="50%" cy="50%" r="75%" fx="40%" fy="40%">
      <stop offset="0%" stop-color="#FFECB3" />
      <stop offset="60%" stop-color="#FFE082" />
      <stop offset="100%" stop-color="#FFD54F" />
    </radialGradient>
    
    <!-- Lepinja Bottom Surface Gradient -->
    <radialGradient id="lepinjaBottomGradient" cx="50%" cy="50%" r="70%" fx="40%" fy="40%">
      <stop offset="0%" stop-color="#FFE082" />
      <stop offset="60%" stop-color="#FFD54F" />
      <stop offset="100%" stop-color="#FFCA28" />
    </radialGradient>
    
    <!-- Lepinja Crust Gradient -->
    <linearGradient id="crustGradient" x1="0%" y1="0%" x2="100%" y2="100%">
      <stop offset="0%" stop-color="#FFA000" />
      <stop offset="50%" stop-color="#FF8F00" />
      <stop offset="100%" stop-color="#FF6F00" />
    </linearGradient>
    
    <!-- Flour Dust Gradient -->
    <radialGradient id="flourGradient" cx="50%" cy="50%" r="60%" fx="40%" fy="40%">
      <stop offset="0%" stop-color="#FFFFFF" />
      <stop offset="70%" stop-color="#FAFAFA" />
      <stop offset="100%" stop-color="#F5F5F5" />
    </radialGradient>
    
    <!-- Surface Scoring Pattern -->
    <pattern id="scoringPattern" width="20" height="20" patternUnits="userSpaceOnUse">
      <path d="M5,0 L15,20 M15,0 L5,20" stroke="#FFD54F" stroke-width="0.5" opacity="0.4" />
    </pattern>
    
    <!-- Bread Texture Pattern -->
    <pattern id="breadTexture" width="10" height="10" patternUnits="userSpaceOnUse">
      <rect width="10" height="10" fill="#FFE082" fill-opacity="0.05" />
      <circle cx="5" cy="5" r="2" fill="#FFECB3" fill-opacity="0.1" />
    </pattern>
    
    <!-- Drop Shadow Filter -->
    <filter id="dropShadow" x="-20%" y="-20%" width="140%" height="140%">
      <feGaussianBlur in="SourceAlpha" stdDeviation="2" />
      <feOffset dx="0" dy="2" result="offsetblur" />
      <feComponentTransfer>
        <feFuncA type="linear" slope="0.3" />
      </feComponentTransfer>
      <feMerge>
        <feMergeNode />
        <feMergeNode in="SourceGraphic" />
      </feMerge>
    </filter>
    
    <!-- Soft Shadow Filter -->
    <filter id="softShadow" x="-10%" y="-10%" width="120%" height="140%">
      <feGaussianBlur in="SourceAlpha" stdDeviation="1" />
      <feOffset dx="0" dy="1" result="offsetblur" />
      <feComponentTransfer>
        <feFuncA type="linear" slope="0.2" />
      </feComponentTransfer>
      <feMerge>
        <feMergeNode />
        <feMergeNode in="SourceGraphic" />
      </feMerge>
    </filter>
    
    <!-- Inner Shadow Filter -->
    <filter id="innerShadow" x="-20%" y="-20%" width="140%" height="140%">
      <feGaussianBlur in="SourceAlpha" stdDeviation="1.5" />
      <feOffset dx="0" dy="1" />
      <feComposite in2="SourceAlpha" operator="arithmetic" k2="-1" k3="1" />
      <feComponentTransfer>
        <feFuncA type="linear" slope="0.4" />
      </feComponentTransfer>
      <feComposite in2="SourceGraphic" operator="in" />
      <feMerge>
        <feMergeNode />
        <feMergeNode in="SourceGraphic" />
      </feMerge>
    </filter>
    
    <!-- Highlight Filter -->
    <filter id="highlightFilter" x="-10%" y="-10%" width="120%" height="120%">
      <feGaussianBlur in="SourceAlpha" stdDeviation="1" />
      <feComponentTransfer>
        <feFuncA type="linear" slope="0.3" />
      </feComponentTransfer>
      <feComposite in="SourceGraphic" />
    </filter>
  </defs>
  
  <!-- Wooden Table -->
  <rect x="0" y="175" width="200" height="25" fill="url(#woodGradient)" />
  <path d="M0,180 L200,183 M0,190 L200,187 M0,195 L200,193" stroke="#5D4037" stroke-width="0.3" fill="none" opacity="0.3" />
  
  <!-- Plate Shadow on Table -->
  <ellipse cx="100" cy="175" rx="65" ry="10" fill="rgba(0,0,0,0.15)" filter="url(#softShadow)" />
  
  <!-- Ceramic Plate -->
  <g filter="url(#dropShadow)">
    <ellipse cx="100" cy="150" rx="70" ry="20" fill="url(#plateGradient)" />
    <ellipse cx="100" cy="150" rx="65" ry="17" fill="none" stroke="#E0E0E0" stroke-width="0.8" />
    <ellipse cx="85" cy="145" rx="20" ry="6" fill="#FFFFFF" opacity="0.2" filter="url(#highlightFilter)" />
  </g>
  
  <!-- Lepinja Bread -->
  <g filter="url(#dropShadow)" transform="translate(100, 140)">
    <!-- Main Bread Shape -->
    <ellipse cx="0" cy="0" rx="50" ry="15" fill="url(#lepinjaGradient)" />
    
    <!-- Bottom Crust -->
    <path d="M-50,0 
             A50,15 0 0,0 50,0
             A50,18 0 0,1 -50,0"
          fill="url(#lepinjaBottomGradient)"
          opacity="0.9" />
    
    <!-- Top Surface with Distinct Texture -->
    <ellipse cx="0" cy="0" rx="45" ry="12" fill="url(#lepinjaSurfaceGradient)" />
    <ellipse cx="0" cy="0" rx="45" ry="12" fill="url(#breadTexture)" />
    
    <!-- Crust Edge -->
    <ellipse cx="0" cy="0" rx="50" ry="15" fill="none" stroke="url(#crustGradient)" stroke-width="1.5" />
    
    <!-- Surface Scoring/Patterns -->
    <g filter="url(#innerShadow)">
      <!-- Central Depression -->
      <ellipse cx="0" cy="0" rx="25" ry="6" fill="url(#lepinjaSurfaceGradient)" opacity="0.9" />
      
      <!-- Decorative Scores (Traditional Serbian Lepinja Pattern) -->
      <path d="M-30,-3 L30,-3 M-35,0 L35,0 M-30,3 L30,3" 
            stroke="#FFD54F" 
            stroke-width="0.7" 
            opacity="0.7" />
            
      <!-- Circular Scoring Pattern -->
      <path d="M0,0 m-20,0 a20,5 0 1,0 40,0 a20,5 0 1,0 -40,0" 
            fill="none" 
            stroke="#FFD54F" 
            stroke-width="0.7" 
            opacity="0.6" />
      
      <path d="M0,0 m-30,0 a30,8 0 1,0 60,0 a30,8 0 1,0 -60,0" 
            fill="none" 
            stroke="#FFD54F" 
            stroke-width="0.7" 
            opacity="0.6" />
    </g>
    
    <!-- Surface Highlights -->
    <ellipse cx="-15" cy="-5" rx="12" ry="4" fill="#FFFFFF" opacity="0.15" />
    <ellipse cx="20" cy="-3" rx="10" ry="3" fill="#FFFFFF" opacity="0.1" />
    
    <!-- Air Holes and Texture Details -->
    <g filter="url(#innerShadow)">
      <circle cx="-25" cy="-2" r="1.5" fill="#FFCA28" opacity="0.9" />
      <circle cx="-18" cy="3" r="1.2" fill="#FFCA28" opacity="0.9" />
      <circle cx="-8" cy="-4" r="1" fill="#FFCA28" opacity="0.9" />
      <circle cx="5" cy="2" r="1.3" fill="#FFCA28" opacity="0.9" />
      <circle cx="15" cy="-3" r="1.1" fill="#FFCA28" opacity="0.9" />
      <circle cx="22" cy="4" r="1.4" fill="#FFCA28" opacity="0.9" />
      <circle cx="30" cy="-1" r="1" fill="#FFCA28" opacity="0.9" />
    </g>
    
    <!-- Flour Dusting -->
    <g opacity="0.4">
      <ellipse cx="-30" cy="-5" rx="8" ry="3" fill="url(#flourGradient)" />
      <ellipse cx="25" cy="-7" rx="10" ry="2" fill="url(#flourGradient)" />
      <ellipse cx="5" cy="5" rx="7" ry="2" fill="url(#flourGradient)" />
      <ellipse cx="-20" cy="7" rx="5" ry="1" fill="url(#flourGradient)" />
      <path d="M-40,-2 L-35,2 M-38,5 L-33,3 M25,-5 L30,-2 M27,3 L32,5" 
            stroke="#FFFFFF" 
            stroke-width="0.7" 
            opacity="0.3" />
    </g>
  </g>
  
  <!-- Sliced Section -->
  <g filter="url(#dropShadow)" transform="translate(140, 125) rotate(-10)">
    <!-- Slice Shape -->
    <path d="M-15,-5 
             C-12,-8 12,-8 15,-5
             C18,-2 18,2 15,5
             C12,8 -12,8 -15,5
             C-18,2 -18,-2 -15,-5 Z" 
          fill="url(#lepinjaGradient)" />
    
    <!-- Slice Cut Surface -->
    <path d="M-15,-5 
             C-12,-8 12,-8 15,-5
             C18,-2 18,2 15,5
             C12,8 -12,8 -15,5
             C-18,2 -18,-2 -15,-5 Z" 
          fill="none" 
          stroke="url(#crustGradient)" 
          stroke-width="0.8" />
    
    <!-- Slice Texture -->
    <ellipse cx="0" cy="0" rx="12" ry="5" fill="url(#breadTexture)" />
    
    <!-- Internal Texture - Air Bubbles -->
    <g filter="url(#innerShadow)">
      <ellipse cx="-8" cy="-2" rx="2" ry="1" fill="#FFCA28" opacity="0.7" />
      <ellipse cx="0" cy="3" rx="3" ry="1.5" fill="#FFCA28" opacity="0.7" />
      <ellipse cx="7" cy="-1" rx="2.5" ry="1" fill="#FFCA28" opacity="0.7" />
    </g>
    
    <!-- Flour on Cut Surface -->
    <ellipse cx="-5" cy="0" rx="4" ry="1" fill="url(#flourGradient)" opacity="0.3" />
  </g>
  
  <!-- Small Bread Crumbs -->
  <g filter="url(#softShadow)">
    <circle cx="65" cy="145" r="2" fill="url(#lepinjaSurfaceGradient)" />
    <circle cx="70" cy="155" r="1.5" fill="url(#lepinjaSurfaceGradient)" />
    <circle cx="155" cy="150" r="2.5" fill="url(#lepinjaSurfaceGradient)" />
    <circle cx="145" cy="158" r="1.8" fill="url(#lepinjaSurfaceGradient)" />
    <path d="M67,150 L69,153 M153,148 L155,152" 
          stroke="#FFE082" 
          stroke-width="0.5" 
          opacity="0.6" />
  </g>
</svg>
