<?xml version="1.0" encoding="UTF-8" standalone="no"?>
<svg width="200" height="200" viewBox="0 0 200 200" xmlns="http://www.w3.org/2000/svg">
  <defs>
    <!-- Wooden Table Gradient -->
    <linearGradient id="woodGradient" x1="0%" y1="0%" x2="100%" y2="0%">
      <stop offset="0%" stop-color="#8B5A2B" />
      <stop offset="20%" stop-color="#A67C52" />
      <stop offset="40%" stop-color="#8B5A2B" />
      <stop offset="60%" stop-color="#A67C52" />
      <stop offset="80%" stop-color="#8B5A2B" />
      <stop offset="100%" stop-color="#A67C52" />
    </linearGradient>
    
    <!-- Ceramic Bowl Gradient -->
    <radialGradient id="bowlGradient" cx="50%" cy="50%" r="70%" fx="40%" fy="40%">
      <stop offset="0%" stop-color="#FFFFFF" />
      <stop offset="60%" stop-color="#F8F8F8" />
      <stop offset="100%" stop-color="#EEEEEE" />
    </radialGradient>
    
    <!-- Bowl Inside Gradient -->
    <radialGradient id="bowlInsideGradient" cx="50%" cy="40%" r="70%" fx="45%" fy="35%">
      <stop offset="0%" stop-color="#FFFFFF" />
      <stop offset="100%" stop-color="#F5F5F5" />
    </radialGradient>
    
    <!-- Tomato Gradient -->
    <radialGradient id="tomatoGradient" cx="50%" cy="40%" r="70%" fx="35%" fy="30%">
      <stop offset="0%" stop-color="#E53935" />
      <stop offset="100%" stop-color="#C62828" />
    </radialGradient>
    
    <!-- Tomato Inside Gradient -->
    <radialGradient id="tomatoInsideGradient" cx="50%" cy="50%" r="70%" fx="40%" fy="40%">
      <stop offset="0%" stop-color="#EF5350" />
      <stop offset="100%" stop-color="#E53935" />
    </radialGradient>
    
    <!-- Tomato Seed Gradient -->
    <radialGradient id="tomatoSeedGradient" cx="50%" cy="50%" r="70%" fx="40%" fy="40%">
      <stop offset="0%" stop-color="#FFECB3" />
      <stop offset="100%" stop-color="#FFD54F" />
    </radialGradient>
    
    <!-- Cucumber Gradient -->
    <linearGradient id="cucumberGradient" x1="0%" y1="0%" x2="100%" y2="0%">
      <stop offset="0%" stop-color="#7CB342" />
      <stop offset="100%" stop-color="#558B2F" />
    </linearGradient>
    
    <!-- Cucumber Inside Gradient -->
    <radialGradient id="cucumberInsideGradient" cx="50%" cy="50%" r="60%" fx="40%" fy="40%">
      <stop offset="0%" stop-color="#AED581" />
      <stop offset="100%" stop-color="#8BC34A" />
    </radialGradient>
    
    <!-- Red Onion Gradient -->
    <linearGradient id="onionGradient" x1="0%" y1="0%" x2="100%" y2="100%">
      <stop offset="0%" stop-color="#9C27B0" />
      <stop offset="100%" stop-color="#7B1FA2" />
    </linearGradient>
    
    <!-- Red Onion Inside Gradient -->
    <linearGradient id="onionInsideGradient" x1="0%" y1="0%" x2="100%" y2="100%">
      <stop offset="0%" stop-color="#BA68C8" />
      <stop offset="100%" stop-color="#9C27B0" />
    </linearGradient>
    
    <!-- Bell Pepper Gradient -->
    <linearGradient id="pepperGradient" x1="0%" y1="0%" x2="100%" y2="100%">
      <stop offset="0%" stop-color="#43A047" />
      <stop offset="100%" stop-color="#2E7D32" />
    </linearGradient>
    
    <!-- Bell Pepper Inside Gradient -->
    <linearGradient id="pepperInsideGradient" x1="0%" y1="0%" x2="100%" y2="100%">
      <stop offset="0%" stop-color="#66BB6A" />
      <stop offset="100%" stop-color="#43A047" />
    </linearGradient>
    
    <!-- Olive Oil Gradient -->
    <radialGradient id="oliveOilGradient" cx="50%" cy="50%" r="70%" fx="40%" fy="40%">
      <stop offset="0%" stop-color="#FFEB3B" stop-opacity="0.5" />
      <stop offset="100%" stop-color="#FFC107" stop-opacity="0.1" />
    </radialGradient>
    
    <!-- Salt Gradient -->
    <radialGradient id="saltGradient" cx="50%" cy="50%" r="60%" fx="40%" fy="40%">
      <stop offset="0%" stop-color="#FFFFFF" />
      <stop offset="100%" stop-color="#F5F5F5" />
    </radialGradient>
    
    <!-- Herb Gradient -->
    <linearGradient id="herbGradient" x1="0%" y1="0%" x2="100%" y2="100%">
      <stop offset="0%" stop-color="#558B2F" />
      <stop offset="100%" stop-color="#33691E" />
    </linearGradient>
    
    <!-- Vinegar Gradient -->
    <radialGradient id="vinegarGradient" cx="50%" cy="50%" r="60%" fx="40%" fy="40%">
      <stop offset="0%" stop-color="#FFF9C4" stop-opacity="0.6" />
      <stop offset="100%" stop-color="#FFEB3B" stop-opacity="0.2" />
    </radialGradient>
    
    <!-- Drop Shadow Filter -->
    <filter id="dropShadow" x="-20%" y="-20%" width="140%" height="140%">
      <feGaussianBlur in="SourceAlpha" stdDeviation="2" />
      <feOffset dx="0" dy="2" result="offsetblur" />
      <feComponentTransfer>
        <feFuncA type="linear" slope="0.3" />
      </feComponentTransfer>
      <feMerge>
        <feMergeNode />
        <feMergeNode in="SourceGraphic" />
      </feMerge>
    </filter>
    
    <!-- Soft Shadow Filter -->
    <filter id="softShadow" x="-10%" y="-10%" width="120%" height="140%">
      <feGaussianBlur in="SourceAlpha" stdDeviation="1" />
      <feOffset dx="0" dy="1" result="offsetblur" />
      <feComponentTransfer>
        <feFuncA type="linear" slope="0.2" />
      </feComponentTransfer>
      <feMerge>
        <feMergeNode />
        <feMergeNode in="SourceGraphic" />
      </feMerge>
    </filter>
    
    <!-- Inner Shadow Filter -->
    <filter id="innerShadow" x="-20%" y="-20%" width="140%" height="140%">
      <feGaussianBlur in="SourceAlpha" stdDeviation="1.5" />
      <feOffset dx="0" dy="1" />
      <feComposite in2="SourceAlpha" operator="arithmetic" k2="-1" k3="1" />
      <feComponentTransfer>
        <feFuncA type="linear" slope="0.4" />
      </feComponentTransfer>
      <feComposite in2="SourceGraphic" operator="in" />
      <feMerge>
        <feMergeNode />
        <feMergeNode in="SourceGraphic" />
      </feMerge>
    </filter>
    
    <!-- Highlight Filter -->
    <filter id="highlightFilter" x="-10%" y="-10%" width="120%" height="120%">
      <feGaussianBlur in="SourceAlpha" stdDeviation="1" />
      <feComponentTransfer>
        <feFuncA type="linear" slope="0.3" />
      </feComponentTransfer>
      <feComposite in="SourceGraphic" />
    </filter>
    
    <!-- Moisture/Juice Pattern -->
    <pattern id="moisturePattern" width="20" height="20" patternUnits="userSpaceOnUse">
      <rect width="20" height="20" fill="white" opacity="0.05" />
      <circle cx="10" cy="10" r="5" fill="white" opacity="0.1" />
    </pattern>
  </defs>
  
  <!-- Wooden Table -->
  <rect x="0" y="175" width="200" height="25" fill="url(#woodGradient)" />
  <path d="M0,180 L200,183 M0,190 L200,187 M0,195 L200,193" stroke="#5D4037" stroke-width="0.3" fill="none" opacity="0.3" />
  
  <!-- Bowl Shadow on Table -->
  <ellipse cx="100" cy="175" rx="65" ry="10" fill="rgba(0,0,0,0.15)" filter="url(#softShadow)" />
  
  <!-- Ceramic Bowl -->
  <g filter="url(#dropShadow)">
    <!-- Bowl Outside -->
    <ellipse cx="100" cy="150" rx="60" ry="20" fill="url(#bowlGradient)" />
    <ellipse cx="100" cy="150" rx="60" ry="20" fill="none" stroke="#E0E0E0" stroke-width="0.8" />
    
    <!-- Bowl Inside -->
    <ellipse cx="100" cy="140" rx="50" ry="15" fill="url(#bowlInsideGradient)" />
    
    <!-- Bowl Rim -->
    <path d="M50,150 
            A60,20 0 0,1 150,150" 
          fill="none" 
          stroke="#E0E0E0" 
          stroke-width="1" />
    
    <!-- Bowl Highlight -->
    <ellipse cx="85" cy="135" rx="15" ry="5" fill="#FFFFFF" opacity="0.2" filter="url(#highlightFilter)" />
  </g>
  
  <!-- Salad Contents -->
  <g transform="translate(100, 140)">
    <!-- Tomato Chunks -->
    <g>
      <!-- Tomato Chunk 1 -->
      <path d="M-25,-5 
              C-30,-8 -25,-15 -20,-12
              C-15,-9 -15,-5 -20,0
              C-25,-2 -25,-5 -25,-5 Z" 
            fill="url(#tomatoGradient)" 
            filter="url(#softShadow)" />
      
      <path d="M-27,-7 
              C-25,-9 -22,-10 -20,-8" 
            fill="none" 
            stroke="url(#tomatoInsideGradient)" 
            stroke-width="0.5" 
            opacity="0.8" />
      
      <!-- Tomato Chunk 2 -->
      <path d="M-10,10 
              C-15,7 -10,0 -5,3
              C0,6 0,10 -5,15
              C-10,13 -10,10 -10,10 Z" 
            fill="url(#tomatoGradient)" 
            filter="url(#softShadow)" />
      
      <path d="M-12,8 
              C-10,6 -7,5 -5,7" 
            fill="none" 
            stroke="url(#tomatoInsideGradient)" 
            stroke-width="0.5" 
            opacity="0.8" />
      
      <!-- Tomato Seeds -->
      <ellipse cx="-22" cy="-7" rx="1" ry="0.5" transform="rotate(30 -22 -7)" fill="url(#tomatoSeedGradient)" opacity="0.9" />
      <ellipse cx="-7" cy="10" rx="1" ry="0.5" transform="rotate(-20 -7 10)" fill="url(#tomatoSeedGradient)" opacity="0.9" />
      
      <!-- Tomato Chunk 3 -->
      <path d="M15,-10 
              C10,-13 15,-20 20,-17
              C25,-14 25,-10 20,-5
              C15,-7 15,-10 15,-10 Z" 
            fill="url(#tomatoGradient)" 
            filter="url(#softShadow)" />
      
      <path d="M13,-12 
              C15,-14 18,-15 20,-13" 
            fill="none" 
            stroke="url(#tomatoInsideGradient)" 
            stroke-width="0.5" 
            opacity="0.8" />
      
      <!-- Tomato Seeds -->
      <ellipse cx="18" cy="-12" rx="1" ry="0.5" transform="rotate(30 18 -12)" fill="url(#tomatoSeedGradient)" opacity="0.9" />
      <ellipse cx="15" cy="-8" rx="1" ry="0.5" transform="rotate(-20 15 -8)" fill="url(#tomatoSeedGradient)" opacity="0.9" />
    </g>
    
    <!-- Cucumber Chunks -->
    <g>
      <!-- Cucumber Chunk 1 -->
      <path d="M-35,5 
              C-37,2 -34,-3 -30,0
              C-26,3 -26,7 -30,10
              C-34,7 -35,5 -35,5 Z" 
            fill="url(#cucumberGradient)" 
            filter="url(#softShadow)" />
      
      <path d="M-34,2 
              C-32,0 -29,-1 -30,2" 
            fill="none" 
            stroke="url(#cucumberInsideGradient)" 
            stroke-width="0.5" 
            opacity="0.8" />
      
      <!-- Cucumber Chunk 2 -->
      <path d="M5,15 
              C3,12 6,7 10,10
              C14,13 14,17 10,20
              C6,17 5,15 5,15 Z" 
            fill="url(#cucumberGradient)" 
            filter="url(#softShadow)" />
      
      <path d="M6,12 
              C8,10 11,9 10,12" 
            fill="none" 
            stroke="url(#cucumberInsideGradient)" 
            stroke-width="0.5" 
            opacity="0.8" />
      
      <!-- Cucumber Seeds -->
      <ellipse cx="-32" cy="5" rx="0.8" ry="0.4" transform="rotate(30 -32 5)" fill="#FFFFFF" opacity="0.4" />
      <ellipse cx="7" cy="15" rx="0.8" ry="0.4" transform="rotate(-20 7 15)" fill="#FFFFFF" opacity="0.4" />
    </g>
    
    <!-- Onion Slices -->
    <g>
      <!-- Onion Slice 1 -->
      <path d="M-15,-15 
              C-18,-18 -15,-25 -10,-22
              C-5,-19 -5,-15 -10,-10
              C-15,-12 -15,-15 -15,-15 Z" 
            fill="url(#onionGradient)" 
            filter="url(#softShadow)" />
      
      <path d="M-17,-17 
              C-15,-19 -12,-20 -10,-18" 
            fill="none" 
            stroke="url(#onionInsideGradient)" 
            stroke-width="0.5" 
            opacity="0.8" />
      
      <!-- Onion Slice 2 -->
      <path d="M30,0 
              C27,-3 30,-10 35,-7
              C40,-4 40,0 35,5
              C30,3 30,0 30,0 Z" 
            fill="url(#onionGradient)" 
            filter="url(#softShadow)" />
      
      <path d="M28,-2 
              C30,-4 33,-5 35,-3" 
            fill="none" 
            stroke="url(#onionInsideGradient)" 
            stroke-width="0.5" 
            opacity="0.8" />
      
      <!-- Onion Rings -->
      <ellipse cx="-12" cy="-17" rx="2" ry="1" transform="rotate(30 -12 -17)" fill="#FFFFFF" opacity="0.3" />
      <ellipse cx="33" cy="-2" rx="2" ry="1" transform="rotate(-20 33 -2)" fill="#FFFFFF" opacity="0.3" />
    </g>
    
    <!-- Bell Pepper Chunks -->
    <g>
      <!-- Pepper Chunk 1 -->
      <path d="M25,15 
              C22,12 25,5 30,8
              C35,11 35,15 30,20
              C25,18 25,15 25,15 Z" 
            fill="url(#pepperGradient)" 
            filter="url(#softShadow)" />
      
      <path d="M23,13 
              C25,11 28,10 30,12" 
            fill="none" 
            stroke="url(#pepperInsideGradient)" 
            stroke-width="0.5" 
            opacity="0.8" />
      
      <!-- Pepper Chunk 2 -->
      <path d="M-40,-5 
              C-43,-8 -40,-15 -35,-12
              C-30,-9 -30,-5 -35,0
              C-40,-2 -40,-5 -40,-5 Z" 
            fill="url(#pepperGradient)" 
            filter="url(#softShadow)" />
      
      <path d="M-42,-7 
              C-40,-9 -37,-10 -35,-8" 
            fill="none" 
            stroke="url(#pepperInsideGradient)" 
            stroke-width="0.5" 
            opacity="0.8" />
    </g>
    
    <!-- Olive Oil and Vinegar Drizzle -->
    <g opacity="0.7">
      <path d="M-25,-20 
              C-20,-15 -15,-25 -10,-20
              C-5,-15 0,-25 5,-20
              C10,-15 15,-25 20,-20
              C25,-15 30,-25 35,-20" 
            fill="none" 
            stroke="url(#oliveOilGradient)" 
            stroke-width="1.5" 
            stroke-linecap="round" />
      
      <path d="M-30,0 
              C-25,5 -20,-5 -15,0
              C-10,5 -5,-5 0,0
              C5,5 10,-5 15,0
              C20,5 25,-5 30,0" 
            fill="none" 
            stroke="url(#vinegarGradient)" 
            stroke-width="1.2" 
            stroke-linecap="round" />
    </g>
    
    <!-- Herb Sprinkles -->
    <g>
      <path d="M-20,5 C-21,4 -20,3 -19,4 C-18,3 -17,4 -18,5" fill="url(#herbGradient)" />
      <path d="M10,-15 C9,-16 10,-17 11,-16 C12,-17 13,-16 12,-15" fill="url(#herbGradient)" />
      <path d="M20,10 C19,9 20,8 21,9" fill="url(#herbGradient)" />
      <path d="M-5,-10 C-6,-11 -5,-12 -4,-11" fill="url(#herbGradient)" />
      <path d="M-30,-10 C-31,-11 -30,-12 -29,-11" fill="url(#herbGradient)" />
    </g>
    
    <!-- Salt Specks -->
    <g>
      <circle cx="-15" cy="0" r="0.5" fill="url(#saltGradient)" />
      <circle cx="0" cy="-5" r="0.4" fill="url(#saltGradient)" />
      <circle cx="15" cy="5" r="0.6" fill="url(#saltGradient)" />
      <circle cx="-25" cy="-15" r="0.5" fill="url(#saltGradient)" />
      <circle cx="25" cy="-10" r="0.4" fill="url(#saltGradient)" />
    </g>
    
    <!-- Dressing Moisture Effect -->
    <ellipse cx="0" cy="0" rx="40" ry="12" fill="url(#moisturePattern)" opacity="0.3" />
  </g>
  
  <!-- Spoon -->
  <g filter="url(#dropShadow)" transform="translate(150, 130) rotate(-30)">
    <!-- Spoon Handle -->
    <rect x="-2" y="0" width="4" height="25" rx="1" ry="1" fill="#BDBDBD" />
    
    <!-- Spoon Bowl -->
    <ellipse cx="0" cy="-8" rx="8" ry="12" fill="#9E9E9E" />
    <ellipse cx="0" cy="-8" rx="6" ry="10" fill="#BDBDBD" />
    
    <!-- Spoon Highlights -->
    <ellipse cx="-2" cy="-10" rx="3" ry="5" fill="#FFFFFF" opacity="0.3" />
  </g>
  
  <!-- Small Salad Bits Around the Bowl -->
  <g filter="url(#softShadow)">
    <circle cx="60" cy="145" r="2" fill="url(#tomatoGradient)" />
    <circle cx="155" cy="155" r="1.5" fill="url(#cucumberGradient)" />
    <path d="M140,135 
            C138,133 140,130 142,132
            C144,134 143,136 141,135 Z" 
          fill="url(#onionGradient)" 
          transform="rotate(15 140 135)" />
  </g>
</svg> 