<?xml version="1.0" encoding="UTF-8" standalone="no"?>
<svg width="200" height="200" viewBox="0 0 200 200" xmlns="http://www.w3.org/2000/svg">
  <defs>
    <!-- Wooden Table Gradient -->
    <linearGradient id="woodGradient" x1="0%" y1="0%" x2="100%" y2="0%">
      <stop offset="0%" stop-color="#7D512A" />
      <stop offset="20%" stop-color="#9E7553" />
      <stop offset="40%" stop-color="#8B5A2B" />
      <stop offset="60%" stop-color="#A67C52" />
      <stop offset="80%" stop-color="#7D512A" />
      <stop offset="100%" stop-color="#9E7553" />
    </linearGradient>
    
    <!-- Plate Gradient -->
    <radialGradient id="plateGradient" cx="50%" cy="40%" r="60%" fx="40%" fy="40%">
      <stop offset="0%" stop-color="#FFFFFF" />
      <stop offset="70%" stop-color="#F8F8F8" />
      <stop offset="100%" stop-color="#E8E8E8" />
    </radialGradient>
    
    <!-- Urnebes Gradient -->
    <linearGradient id="urnebesGradient" x1="0%" y1="0%" x2="100%" y2="100%">
      <stop offset="0%" stop-color="#FFE0B2" />
      <stop offset="40%" stop-color="#FFCC80" />
      <stop offset="100%" stop-color="#FFB74D" />
    </linearGradient>
    
    <!-- Cheese Gradient -->
    <linearGradient id="cheeseGradient" x1="0%" y1="0%" x2="100%" y2="100%">
      <stop offset="0%" stop-color="#FFF9C4" />
      <stop offset="50%" stop-color="#FFF176" />
      <stop offset="100%" stop-color="#FFEE58" />
    </linearGradient>
    
    <!-- Pepper Flakes Gradient -->
    <linearGradient id="pepperGradient" x1="0%" y1="0%" x2="100%" y2="100%">
      <stop offset="0%" stop-color="#E53935" />
      <stop offset="60%" stop-color="#C62828" />
      <stop offset="100%" stop-color="#B71C1C" />
    </linearGradient>
    
    <!-- Herb Gradient -->
    <linearGradient id="herbGradient" x1="0%" y1="0%" x2="100%" y2="100%">
      <stop offset="0%" stop-color="#558B2F" />
      <stop offset="50%" stop-color="#33691E" />
      <stop offset="100%" stop-color="#1B5E20" />
    </linearGradient>
    
    <!-- Drop Shadow -->
    <filter id="dropShadow" x="-20%" y="-20%" width="140%" height="140%">
      <feGaussianBlur in="SourceAlpha" stdDeviation="1.5" />
      <feOffset dx="0" dy="1.5" result="offsetblur" />
      <feComponentTransfer>
        <feFuncA type="linear" slope="0.35" />
      </feComponentTransfer>
      <feMerge>
        <feMergeNode />
        <feMergeNode in="SourceGraphic" />
      </feMerge>
    </filter>
    
    <!-- Highlight Filter -->
    <filter id="highlightFilter" x="-10%" y="-10%" width="120%" height="120%">
      <feGaussianBlur in="SourceAlpha" stdDeviation="1" />
      <feComponentTransfer>
        <feFuncA type="linear" slope="0.2" />
      </feComponentTransfer>
      <feComposite in="SourceGraphic" />
    </filter>
    
    <!-- Urnebes Texture Pattern -->
    <pattern id="urnebesTexture" width="20" height="20" patternUnits="userSpaceOnUse">
      <rect width="20" height="20" fill="url(#urnebesGradient)" />
      <!-- Cheese Chunks -->
      <circle cx="5" cy="5" r="1.5" fill="url(#cheeseGradient)" />
      <circle cx="15" cy="15" r="1.2" fill="url(#cheeseGradient)" />
      <circle cx="10" cy="10" r="1.8" fill="url(#cheeseGradient)" />
      <!-- Pepper Flakes -->
      <circle cx="7" cy="14" r="0.8" fill="url(#pepperGradient)" />
      <circle cx="12" cy="4" r="0.6" fill="url(#pepperGradient)" />
      <circle cx="18" cy="8" r="0.7" fill="url(#pepperGradient)" />
    </pattern>
    
    <!-- Bread Gradient -->
    <linearGradient id="breadGradient" x1="0%" y1="0%" x2="100%" y2="100%">
      <stop offset="0%" stop-color="#FFE0B2" />
      <stop offset="50%" stop-color="#FFCC80" />
      <stop offset="100%" stop-color="#FFB74D" />
    </linearGradient>
  </defs>
  
  <!-- Wooden Table Background with Grain -->
  <rect x="0" y="175" width="200" height="25" fill="url(#woodGradient)" />
  <path d="M0,180 L200,177 M0,185 L200,188 M0,190 L200,192" stroke="#5D3200" stroke-width="0.3" fill="none" opacity="0.3" />
  
  <!-- Plate Shadow on Table -->
  <ellipse cx="100" cy="175" rx="65" ry="10" fill="rgba(0,0,0,0.15)" filter="url(#dropShadow)" />
  
  <!-- Plate -->
  <g filter="url(#dropShadow)">
    <ellipse cx="100" cy="150" rx="70" ry="20" fill="url(#plateGradient)" />
    <ellipse cx="100" cy="150" rx="65" ry="17" fill="none" stroke="#E0E0E0" stroke-width="0.8" />
    <ellipse cx="85" cy="145" rx="20" ry="6" fill="#FFFFFF" opacity="0.2" filter="url(#highlightFilter)" />
  </g>
  
  <!-- Urnebes Spread (Serbian cheese and pepper spread) -->
  <g filter="url(#dropShadow)">
    <!-- Main Spread -->
    <path d="M60,140 
           C60,130 75,125 100,130 
           C125,125 140,130 140,140 
           C140,150 125,155 100,152 
           C75,155 60,150 60,140 Z" 
          fill="url(#urnebesTexture)" />
    
    <!-- Textured Surface -->
    <g opacity="0.8">
      <!-- Cheese chunks -->
      <circle cx="70" cy="135" r="3" fill="url(#cheeseGradient)" />
      <circle cx="85" cy="132" r="4" fill="url(#cheeseGradient)" />
      <circle cx="105" cy="134" r="3.5" fill="url(#cheeseGradient)" />
      <circle cx="125" cy="133" r="2.5" fill="url(#cheeseGradient)" />
      
      <!-- Red Pepper Flakes -->
      <circle cx="75" cy="138" r="1.5" fill="url(#pepperGradient)" />
      <circle cx="90" cy="135" r="1.2" fill="url(#pepperGradient)" />
      <circle cx="110" cy="138" r="1.8" fill="url(#pepperGradient)" />
      <circle cx="130" cy="136" r="1.3" fill="url(#pepperGradient)" />
      <circle cx="95" cy="140" r="1.5" fill="url(#pepperGradient)" />
      <circle cx="115" cy="142" r="1.2" fill="url(#pepperGradient)" />
      
      <!-- Surface detail lines -->
      <path d="M70,135 Q80,138 90,137 Q100,135 110,138 Q120,140 130,138" 
            stroke="#FFCC80" stroke-width="0.5" fill="none" opacity="0.7" />
      <path d="M75,140 Q85,143 95,142 Q105,140 115,143 Q125,145 135,143" 
            stroke="#FFCC80" stroke-width="0.5" fill="none" opacity="0.7" />
            
      <!-- Oil drips on surface -->
      <ellipse cx="80" cy="137" rx="3" ry="1" fill="#FFFFFF" opacity="0.15" />
      <ellipse cx="100" cy="140" rx="4" ry="1.5" fill="#FFFFFF" opacity="0.15" />
      <ellipse cx="120" cy="139" rx="3" ry="1" fill="#FFFFFF" opacity="0.15" />
    </g>
  </g>
  
  <!-- Small slices of bread for serving -->
  <g filter="url(#dropShadow)" transform="translate(65, 155) rotate(-5)">
    <path d="M-12,-8 
            Q-10,-12 -5,-12 
            L5,-12 
            Q10,-12 12,-8 
            Q14,-4 12,0 
            Q10,4 5,4 
            L-5,4 
            Q-10,4 -12,0 
            Q-14,-4 -12,-8 Z" 
          fill="url(#breadGradient)" />
    
    <!-- Bread Crust -->
    <path d="M-12,-8 
            Q-10,-12 -5,-12 
            L5,-12 
            Q10,-12 12,-8 
            Q14,-4 12,0 
            Q10,4 5,4 
            L-5,4 
            Q-10,4 -12,0 
            Q-14,-4 -12,-8 Z" 
          fill="none" stroke="#E65100" stroke-width="0.5" opacity="0.3" />
    
    <!-- Bread Texture -->
    <path d="M-5,-8 L5,-8 M-8,-4 L8,-4 M-5,0 L5,0" 
          stroke="#FFE0B2" stroke-width="0.3" stroke-dasharray="2,2" opacity="0.5" />
          
    <!-- Urnebes spread on the bread -->
    <path d="M-5,-6 
           C-5,-8 0,-9 5,-7 
           L6,-1 
           C0,0 -5,-1 -5,-6 Z" 
          fill="url(#urnebesTexture)" opacity="0.9" />
  </g>
  
  <g filter="url(#dropShadow)" transform="translate(135, 155) rotate(5)">
    <path d="M-12,-8 
            Q-10,-12 -5,-12 
            L5,-12 
            Q10,-12 12,-8 
            Q14,-4 12,0 
            Q10,4 5,4 
            L-5,4 
            Q-10,4 -12,0 
            Q-14,-4 -12,-8 Z" 
          fill="url(#breadGradient)" />
    
    <!-- Bread Crust -->
    <path d="M-12,-8 
            Q-10,-12 -5,-12 
            L5,-12 
            Q10,-12 12,-8 
            Q14,-4 12,0 
            Q10,4 5,4 
            L-5,4 
            Q-10,4 -12,0 
            Q-14,-4 -12,-8 Z" 
          fill="none" stroke="#E65100" stroke-width="0.5" opacity="0.3" />
    
    <!-- Bread Texture -->
    <path d="M-5,-8 L5,-8 M-8,-4 L8,-4 M-5,0 L5,0" 
          stroke="#FFE0B2" stroke-width="0.3" stroke-dasharray="2,2" opacity="0.5" />
  </g>
  
  <!-- Spoon -->
  <g filter="url(#dropShadow)" transform="translate(155, 130) rotate(-35)">
    <!-- Spoon Handle -->
    <rect x="-5" y="0" width="5" height="25" rx="2" ry="2" fill="#9E9E9E" />
    
    <!-- Spoon Bowl -->
    <ellipse cx="0" cy="-5" rx="8" ry="10" fill="#BDBDBD" />
    <ellipse cx="0" cy="-5" rx="6" ry="8" fill="#E0E0E0" />
    
    <!-- Spoon Highlights -->
    <ellipse cx="-1" cy="-7" rx="3" ry="4" fill="#FFFFFF" opacity="0.3" />
    
    <!-- Urnebes on Spoon -->
    <path d="M-4,-8 
           C-4,-12 0,-14 4,-12 
           C5,-8 4,-4 0,-2 
           C-4,-4 -5,-8 -4,-8 Z" 
          fill="url(#urnebesTexture)" opacity="0.9" />
  </g>
  
  <!-- Herb Garnish -->
  <g transform="translate(60, 125) rotate(15)">
    <!-- Parsley Leaf 1 -->
    <path d="M0,0 C-3,-4 -8,-3 -5,0 C-2,3 2,2 0,0 Z" 
          fill="url(#herbGradient)" />
    <!-- Leaf Vein -->
    <path d="M0,0 L-5,0" stroke="#1B5E20" stroke-width="0.3" opacity="0.7" />
  </g>
  
  <g transform="translate(55, 130) rotate(-10)">
    <!-- Parsley Leaf 2 -->
    <path d="M0,0 C-2,-3 -6,-2 -4,0 C-2,2 1,1 0,0 Z" 
          fill="url(#herbGradient)" />
    <!-- Leaf Vein -->
    <path d="M0,0 L-4,0" stroke="#1B5E20" stroke-width="0.2" opacity="0.7" />
  </g>
  
  <g transform="translate(140, 125) rotate(-15)">
    <!-- Parsley Leaf 3 -->
    <path d="M0,0 C-3,-4 -8,-3 -5,0 C-2,3 2,2 0,0 Z" 
          fill="url(#herbGradient)" />
    <!-- Leaf Vein -->
    <path d="M0,0 L-5,0" stroke="#1B5E20" stroke-width="0.3" opacity="0.7" />
  </g>
  
  <!-- Surface Highlights -->
  <ellipse cx="90" cy="140" rx="12" ry="3" fill="#FFFFFF" opacity="0.1" />
  <ellipse cx="110" cy="142" rx="15" ry="4" fill="#FFFFFF" opacity="0.1" />
</svg> 