<?xml version="1.0" encoding="UTF-8" standalone="no"?>
<svg width="200" height="200" viewBox="0 0 200 200" xmlns="http://www.w3.org/2000/svg">
  <defs>
    <!-- Wooden Table -->
    <linearGradient id="woodGradient" x1="0%" y1="0%" x2="100%" y2="0%">
      <stop offset="0%" stop-color="#8B5A2B" />
      <stop offset="20%" stop-color="#A67C52" />
      <stop offset="40%" stop-color="#8B5A2B" />
      <stop offset="60%" stop-color="#A67C52" />
      <stop offset="80%" stop-color="#8B5A2B" />
      <stop offset="100%" stop-color="#A67C52" />
    </linearGradient>
    
    <!-- Plate Gradient -->
    <linearGradient id="plateGradient" x1="0%" y1="0%" x2="0%" y2="100%">
      <stop offset="0%" stop-color="#FFFFFF" />
      <stop offset="100%" stop-color="#E0E0E0" />
    </linearGradient>
    
    <!-- Flatbread (Lepinja) Gradient -->
    <linearGradient id="breadGradient" x1="0%" y1="0%" x2="0%" y2="100%">
      <stop offset="0%" stop-color="#F8EFD3" />
      <stop offset="100%" stop-color="#E6D5A8" />
    </linearGradient>
    
    <!-- Cevapcici (Meat) Gradient -->
    <linearGradient id="meatGradient" x1="0%" y1="0%" x2="0%" y2="100%">
      <stop offset="0%" stop-color="#8B4E2A" />
      <stop offset="50%" stop-color="#6B3816" />
      <stop offset="100%" stop-color="#5A2E10" />
    </linearGradient>
    
    <!-- Grill Marks -->
    <pattern id="grillMarks" patternUnits="userSpaceOnUse" width="10" height="10" patternTransform="rotate(45)">
      <line x1="0" y1="0" x2="0" y2="10" stroke="#3A1F0D" stroke-width="2" />
    </pattern>
    
    <!-- Onion Gradient -->
    <linearGradient id="onionGradient" x1="0%" y1="0%" x2="0%" y2="100%">
      <stop offset="0%" stop-color="#FFFFFF" />
      <stop offset="100%" stop-color="#F5F5F5" />
    </linearGradient>
    
    <!-- Kajmak Gradient -->
    <linearGradient id="kajmakGradient" x1="0%" y1="0%" x2="0%" y2="100%">
      <stop offset="0%" stop-color="#FFFEF0" />
      <stop offset="100%" stop-color="#FFF8C9" />
    </linearGradient>
    
    <!-- Ajvar Gradient -->
    <linearGradient id="ajvarGradient" x1="0%" y1="0%" x2="0%" y2="100%">
      <stop offset="0%" stop-color="#E04C36" />
      <stop offset="100%" stop-color="#B23920" />
    </linearGradient>
    
    <!-- Drop Shadow -->
    <filter id="dropShadow" x="-20%" y="-20%" width="140%" height="140%">
      <feGaussianBlur in="SourceAlpha" stdDeviation="3" />
      <feOffset dx="0" dy="2" result="offsetblur" />
      <feComponentTransfer>
        <feFuncA type="linear" slope="0.2" />
      </feComponentTransfer>
      <feMerge>
        <feMergeNode />
        <feMergeNode in="SourceGraphic" />
      </feMerge>
    </filter>
    
    <!-- Inner Shadow -->
    <filter id="innerShadow" x="-50%" y="-50%" width="200%" height="200%">
      <feGaussianBlur in="SourceAlpha" stdDeviation="2" result="blur" />
      <feOffset dx="0" dy="1" />
      <feComposite in2="SourceAlpha" operator="arithmetic" k2="-1" k3="1" />
      <feColorMatrix type="matrix" values="0 0 0 0 0  0 0 0 0 0  0 0 0 0 0  0 0 0 0.3 0" />
      <feMerge>
        <feMergeNode />
        <feMergeNode in="SourceGraphic" />
      </feMerge>
    </filter>
  </defs>
  
  <!-- Wooden Table Background -->
  <rect x="0" y="175" width="200" height="25" fill="url(#woodGradient)" />
  
  <!-- Plate with Shadow -->
  <ellipse cx="100" cy="165" rx="85" ry="20" fill="url(#plateGradient)" filter="url(#dropShadow)" />
  
  <!-- Flatbread (Lepinja) with Texture -->
  <ellipse cx="100" cy="135" rx="70" ry="25" fill="url(#breadGradient)" filter="url(#innerShadow)" />
  <ellipse cx="100" cy="135" rx="65" ry="20" fill="url(#breadGradient)" opacity="0.7" />
  
  <!-- Bread Texture -->
  <path d="M50,130 Q70,125 90,130 Q110,135 130,130 Q150,125 170,130" stroke="#E0D0B0" stroke-width="1" fill="none" opacity="0.5" />
  <path d="M60,140 Q80,145 100,140 Q120,135 140,140 Q160,145 180,140" stroke="#E0D0B0" stroke-width="1" fill="none" opacity="0.5" />
  
  <!-- Cevapcici (Meat Fingers) with Grill Marks -->
  <rect x="60" y="100" width="15" height="40" rx="5" ry="5" fill="url(#meatGradient)" stroke="#5A2E10" stroke-width="0.5" transform="rotate(-5,60,100)" filter="url(#dropShadow)" />
  <rect x="60" y="100" width="15" height="40" rx="5" ry="5" fill="url(#grillMarks)" fill-opacity="0.3" transform="rotate(-5,60,100)" />
  
  <rect x="80" y="95" width="15" height="40" rx="5" ry="5" fill="url(#meatGradient)" stroke="#5A2E10" stroke-width="0.5" transform="rotate(5,80,95)" filter="url(#dropShadow)" />
  <rect x="80" y="95" width="15" height="40" rx="5" ry="5" fill="url(#grillMarks)" fill-opacity="0.3" transform="rotate(5,80,95)" />
  
  <rect x="100" y="98" width="15" height="40" rx="5" ry="5" fill="url(#meatGradient)" stroke="#5A2E10" stroke-width="0.5" transform="rotate(-5,100,98)" filter="url(#dropShadow)" />
  <rect x="100" y="98" width="15" height="40" rx="5" ry="5" fill="url(#grillMarks)" fill-opacity="0.3" transform="rotate(-5,100,98)" />
  
  <rect x="120" y="95" width="15" height="40" rx="5" ry="5" fill="url(#meatGradient)" stroke="#5A2E10" stroke-width="0.5" transform="rotate(5,120,95)" filter="url(#dropShadow)" />
  <rect x="120" y="95" width="15" height="40" rx="5" ry="5" fill="url(#grillMarks)" fill-opacity="0.3" transform="rotate(5,120,95)" />
  
  <rect x="140" y="100" width="15" height="40" rx="5" ry="5" fill="url(#meatGradient)" stroke="#5A2E10" stroke-width="0.5" transform="rotate(-5,140,100)" filter="url(#dropShadow)" />
  <rect x="140" y="100" width="15" height="40" rx="5" ry="5" fill="url(#grillMarks)" fill-opacity="0.3" transform="rotate(-5,140,100)" />
  
  <!-- Onions with Shadow -->
  <ellipse cx="65" cy="85" rx="10" ry="3" fill="url(#onionGradient)" stroke="#E0E0E0" stroke-width="0.5" transform="rotate(-10,65,85)" filter="url(#dropShadow)" />
  <ellipse cx="90" cy="80" rx="12" ry="3" fill="url(#onionGradient)" stroke="#E0E0E0" stroke-width="0.5" transform="rotate(5,90,80)" filter="url(#dropShadow)" />
  <ellipse cx="115" cy="80" rx="12" ry="3" fill="url(#onionGradient)" stroke="#E0E0E0" stroke-width="0.5" transform="rotate(-5,115,80)" filter="url(#dropShadow)" />
  <ellipse cx="140" cy="85" rx="10" ry="3" fill="url(#onionGradient)" stroke="#E0E0E0" stroke-width="0.5" transform="rotate(10,140,85)" filter="url(#dropShadow)" />
  
  <!-- Kajmak with Highlights -->
  <ellipse cx="75" cy="70" rx="8" ry="3" fill="url(#kajmakGradient)" stroke="#F2EFC9" stroke-width="0.5" transform="rotate(-5,75,70)" filter="url(#dropShadow)" />
  <ellipse cx="100" cy="65" rx="10" ry="3" fill="url(#kajmakGradient)" stroke="#F2EFC9" stroke-width="0.5" transform="rotate(5,100,65)" filter="url(#dropShadow)" />
  <ellipse cx="125" cy="70" rx="8" ry="3" fill="url(#kajmakGradient)" stroke="#F2EFC9" stroke-width="0.5" transform="rotate(-5,125,70)" filter="url(#dropShadow)" />
  
  <!-- Ajvar (Red Pepper Spread) with Gradient -->
  <path d="M60,95 Q80,90 100,95 Q120,100 140,95" stroke="url(#ajvarGradient)" stroke-width="4" stroke-linecap="round" fill="none" filter="url(#dropShadow)" />
  
  <!-- Herbs/Parsley with Improved Detail -->
  <g fill="#3A9D5A">
    <path d="M70,65 Q75,62 80,65 M73,63 L75,60 M77,63 L75,60" stroke="#2E8B57" stroke-width="0.7" />
    <path d="M95,60 Q100,57 105,60 M98,58 L100,55 M102,58 L100,55" stroke="#2E8B57" stroke-width="0.7" />
    <path d="M120,65 Q125,62 130,65 M123,63 L125,60 M127,63 L125,60" stroke="#2E8B57" stroke-width="0.7" />
  </g>
  
  <!-- Flatbread Top Border with Shadow -->
  <ellipse cx="100" cy="65" rx="60" ry="8" fill="url(#breadGradient)" stroke="#E0D0B0" stroke-width="1" filter="url(#innerShadow)" />
</svg> 