<?xml version="1.0" encoding="UTF-8" standalone="no"?>
<svg width="200" height="200" viewBox="0 0 200 200" xmlns="http://www.w3.org/2000/svg">
  <defs>
    <!-- Wooden Table -->
    <linearGradient id="woodGradient" x1="0%" y1="0%" x2="100%" y2="0%">
      <stop offset="0%" stop-color="#8B5A2B" />
      <stop offset="20%" stop-color="#A67C52" />
      <stop offset="40%" stop-color="#8B5A2B" />
      <stop offset="60%" stop-color="#A67C52" />
      <stop offset="80%" stop-color="#8B5A2B" />
      <stop offset="100%" stop-color="#A67C52" />
    </linearGradient>
    
    <!-- Plate Gradient -->
    <linearGradient id="plateGradient" x1="0%" y1="0%" x2="0%" y2="100%">
      <stop offset="0%" stop-color="#FFFFFF" />
      <stop offset="100%" stop-color="#E0E0E0" />
    </linearGradient>
    
    <!-- Meat Exterior Gradient -->
    <linearGradient id="meatExteriorGradient" x1="0%" y1="0%" x2="0%" y2="100%">
      <stop offset="0%" stop-color="#E8BB7F" />
      <stop offset="100%" stop-color="#D4A76A" />
    </linearGradient>
    
    <!-- Meat Interior Gradient -->
    <linearGradient id="meatInteriorGradient" x1="0%" y1="0%" x2="0%" y2="100%">
      <stop offset="0%" stop-color="#FBF4E9" />
      <stop offset="100%" stop-color="#F0DAB0" />
    </linearGradient>
    
    <!-- Kajmak Gradient -->
    <linearGradient id="kajmakGradient" x1="0%" y1="0%" x2="0%" y2="100%">
      <stop offset="0%" stop-color="#FFFEF0" />
      <stop offset="100%" stop-color="#FFF8C9" />
    </linearGradient>
    
    <!-- Tartar Sauce Gradient -->
    <linearGradient id="tartarGradient" x1="0%" y1="0%" x2="0%" y2="100%">
      <stop offset="0%" stop-color="#FFFFF0" />
      <stop offset="100%" stop-color="#F5F5DC" />
    </linearGradient>
    
    <!-- Fries Gradient -->
    <linearGradient id="friesGradient" x1="0%" y1="0%" x2="0%" y2="100%">
      <stop offset="0%" stop-color="#FFD966" />
      <stop offset="100%" stop-color="#E6B422" />
    </linearGradient>
    
    <!-- Garnish Gradient -->
    <linearGradient id="garnishGradient" x1="0%" y1="0%" x2="0%" y2="100%">
      <stop offset="0%" stop-color="#4CAF50" />
      <stop offset="100%" stop-color="#2E7D32" />
    </linearGradient>
    
    <!-- Drop Shadow -->
    <filter id="dropShadow" x="-20%" y="-20%" width="140%" height="140%">
      <feGaussianBlur in="SourceAlpha" stdDeviation="2" />
      <feOffset dx="0" dy="2" result="offsetblur" />
      <feComponentTransfer>
        <feFuncA type="linear" slope="0.3" />
      </feComponentTransfer>
      <feMerge>
        <feMergeNode />
        <feMergeNode in="SourceGraphic" />
      </feMerge>
    </filter>
    
    <!-- Inner Shadow -->
    <filter id="innerShadow" x="-50%" y="-50%" width="200%" height="200%">
      <feGaussianBlur in="SourceAlpha" stdDeviation="1" result="blur" />
      <feOffset dx="0" dy="1" />
      <feComposite in2="SourceAlpha" operator="arithmetic" k2="-1" k3="1" />
      <feColorMatrix type="matrix" values="0 0 0 0 0  0 0 0 0 0  0 0 0 0 0  0 0 0 0.3 0" />
      <feMerge>
        <feMergeNode />
        <feMergeNode in="SourceGraphic" />
      </feMerge>
    </filter>
    
    <!-- Tartar Sauce Pattern -->
    <pattern id="tartarPattern" patternUnits="userSpaceOnUse" width="10" height="10">
      <rect width="10" height="10" fill="url(#tartarGradient)" />
      <circle cx="2" cy="2" r="0.5" fill="#A0A048" opacity="0.5" />
      <circle cx="7" cy="6" r="0.5" fill="#A0A048" opacity="0.5" />
    </pattern>
  </defs>
  
  <!-- Wooden Table Background -->
  <rect x="0" y="175" width="200" height="25" fill="url(#woodGradient)" />
  
  <!-- Plate with Shadow -->
  <ellipse cx="100" cy="165" rx="85" ry="20" fill="url(#plateGradient)" filter="url(#dropShadow)" />
  
  <!-- Karadjordjeva Schnitzel (Stuffed Pork Roll) -->
  <g filter="url(#dropShadow)">
    <!-- Main Body of the Schnitzel -->
    <path d="M50,125 C45,120 40,110 50,100 C60,90 80,85 100,90 C120,95 140,100 150,110 C160,120 155,130 145,135 C135,140 120,140 100,135 C80,130 55,130 50,125 Z" 
          fill="url(#meatExteriorGradient)" stroke="#C6955C" stroke-width="0.5" />
    
    <!-- Cut/Cross Section showing the Filling -->
    <path d="M50,125 C55,122 60,120 70,120 C80,120 90,122 100,125 C110,128 120,130 130,130 C140,130 145,128 150,125 L145,115 C140,112 130,110 120,110 C110,110 100,112 90,115 C80,118 70,120 60,120 C50,120 45,118 50,125 Z" 
          fill="url(#meatInteriorGradient)" stroke="#E8D0A9" stroke-width="0.5" />
    
    <!-- Kajmak Filling (Visible in Cross Section) -->
    <path d="M60,120 C70,117 80,115 90,115 C100,115 110,117 120,120 C130,123 140,125 145,122 L140,112 C135,110 125,108 115,108 C105,108 95,110 85,112 C75,114 65,116 60,120 Z" 
          fill="url(#kajmakGradient)" stroke="#F2EFC9" stroke-width="0.5" />
  </g>
  
  <!-- Tartar Sauce on Top -->
  <path d="M90,95 C95,92 105,90 115,95 C125,100 130,105 125,110 C120,115 110,117 100,115 C90,113 85,98 90,95 Z" 
        fill="url(#tartarPattern)" stroke="#F5F5DC" stroke-width="0.5" filter="url(#innerShadow)" />
  
  <!-- Sauce Drips -->
  <path d="M95,115 Q94,120 93,130" stroke="#F5F5DC" stroke-width="2" fill="none" />
  <path d="M110,115 Q111,125 112,135" stroke="#F5F5DC" stroke-width="2" fill="none" />
  
  <!-- French Fries on the Side -->
  <g filter="url(#dropShadow)">
    <!-- Fries Group 1 -->
    <rect x="35" y="140" width="5" height="25" rx="1" fill="url(#friesGradient)" stroke="#E6B422" stroke-width="0.5" />
    <rect x="42" y="135" width="5" height="30" rx="1" fill="url(#friesGradient)" stroke="#E6B422" stroke-width="0.5" />
    <rect x="49" y="138" width="5" height="27" rx="1" fill="url(#friesGradient)" stroke="#E6B422" stroke-width="0.5" />
    
    <!-- Fries Group 2 -->
    <rect x="150" y="140" width="5" height="25" rx="1" fill="url(#friesGradient)" stroke="#E6B422" stroke-width="0.5" />
    <rect x="157" y="135" width="5" height="30" rx="1" fill="url(#friesGradient)" stroke="#E6B422" stroke-width="0.5" />
    <rect x="164" y="138" width="5" height="27" rx="1" fill="url(#friesGradient)" stroke="#E6B422" stroke-width="0.5" />
  </g>
  
  <!-- Garnish (Parsley) -->
  <g fill="url(#garnishGradient)">
    <path d="M160,120 C162,117 165,115 168,117 C171,119 170,122 167,123 C164,124 158,123 160,120 Z" />
    <path d="M165,123 C166,125 168,126 170,125 C172,124 172,122 170,121 C168,120 164,121 165,123 Z" />
    <path d="M162,116 C164,114 167,113 169,115 C171,117 170,119 167,120 C164,121 160,118 162,116 Z" />
  </g>
  
  <!-- Highlights on the Schnitzel -->
  <ellipse cx="80" cy="100" rx="15" ry="5" fill="#FFFFFF" opacity="0.2" />
  <ellipse cx="120" cy="110" rx="15" ry="5" fill="#FFFFFF" opacity="0.2" />
  
  <!-- Highlights on the Fries -->
  <rect x="36" y="145" width="3" height="15" rx="1" fill="#FFFFFF" opacity="0.3" />
  <rect x="43" y="140" width="3" height="15" rx="1" fill="#FFFFFF" opacity="0.3" />
  <rect x="151" y="145" width="3" height="15" rx="1" fill="#FFFFFF" opacity="0.3" />
  <rect x="158" y="140" width="3" height="15" rx="1" fill="#FFFFFF" opacity="0.3" />
  
  <!-- Texture Details on the Breading -->
  <g opacity="0.5" stroke="#C6955C" stroke-width="0.5" fill="none">
    <path d="M55,105 C60,102 65,100 70,102" />
    <path d="M75,98 C80,96 85,95 90,97" />
    <path d="M110,97 C115,95 120,94 125,96" />
    <path d="M130,100 C135,98 140,97 145,100" />
    <path d="M60,115 C65,112 70,110 75,112" />
    <path d="M125,112 C130,110 135,109 140,112" />
  </g>
</svg> 