<?xml version="1.0" encoding="UTF-8" standalone="no"?>
<svg width="200" height="200" viewBox="0 0 200 200" xmlns="http://www.w3.org/2000/svg">
  <defs>
    <!-- Wooden Table -->
    <linearGradient id="woodGradient" x1="0%" y1="0%" x2="100%" y2="0%">
      <stop offset="0%" stop-color="#8B5A2B" />
      <stop offset="20%" stop-color="#A67C52" />
      <stop offset="40%" stop-color="#8B5A2B" />
      <stop offset="60%" stop-color="#A67C52" />
      <stop offset="80%" stop-color="#8B5A2B" />
      <stop offset="100%" stop-color="#A67C52" />
    </linearGradient>
    
    <!-- Plate Gradient -->
    <linearGradient id="plateGradient" x1="0%" y1="0%" x2="0%" y2="100%">
      <stop offset="0%" stop-color="#FFFFFF" />
      <stop offset="100%" stop-color="#E0E0E0" />
    </linearGradient>
    
    <!-- Bottom Bun Gradient -->
    <linearGradient id="bottomBunGradient" x1="0%" y1="0%" x2="0%" y2="100%">
      <stop offset="0%" stop-color="#F5D0A0" />
      <stop offset="100%" stop-color="#E0B070" />
    </linearGradient>
    
    <!-- Bottom Bun Edge Gradient -->
    <linearGradient id="bottomBunEdgeGradient" x1="0%" y1="0%" x2="0%" y2="100%">
      <stop offset="0%" stop-color="#E0B070" />
      <stop offset="100%" stop-color="#C69050" />
    </linearGradient>
    
    <!-- Top Bun Gradient -->
    <linearGradient id="topBunGradient" x1="0%" y1="0%" x2="0%" y2="100%">
      <stop offset="0%" stop-color="#F5D0A0" />
      <stop offset="100%" stop-color="#E0B070" />
    </linearGradient>
    
    <!-- Top Bun Edge Gradient -->
    <linearGradient id="topBunEdgeGradient" x1="0%" y1="0%" x2="0%" y2="100%">
      <stop offset="0%" stop-color="#E8C090" />
      <stop offset="100%" stop-color="#D0A060" />
    </linearGradient>
    
    <!-- Top Bun Highlight -->
    <radialGradient id="topBunHighlight" cx="40%" cy="40%" r="60%" fx="40%" fy="40%">
      <stop offset="0%" stop-color="#FFF0D0" stop-opacity="0.6" />
      <stop offset="100%" stop-color="#F5D0A0" stop-opacity="0" />
    </radialGradient>
    
    <!-- Sesame Seeds Gradient -->
    <linearGradient id="sesameGradient" x1="0%" y1="0%" x2="0%" y2="100%">
      <stop offset="0%" stop-color="#FFF8E0" />
      <stop offset="100%" stop-color="#F0E0C0" />
    </linearGradient>
    
    <!-- Patty Gradient - Enhanced for Leskovac style -->
    <linearGradient id="pattyGradient" x1="0%" y1="0%" x2="0%" y2="100%">
      <stop offset="0%" stop-color="#8F3010" />
      <stop offset="100%" stop-color="#5A1E00" />
    </linearGradient>
    
    <!-- Patty Texture Gradient - Enhanced -->
    <radialGradient id="pattyTextureGradient" cx="50%" cy="50%" r="50%" fx="30%" fy="30%">
      <stop offset="0%" stop-color="#9A3220" stop-opacity="0.8" />
      <stop offset="100%" stop-color="#602000" stop-opacity="0" />
    </radialGradient>
    
    <!-- Onions Gradient -->
    <linearGradient id="onionsGradient" x1="0%" y1="0%" x2="0%" y2="100%">
      <stop offset="0%" stop-color="#FFFFFF" />
      <stop offset="100%" stop-color="#F0F0F0" />
    </linearGradient>
    
    <!-- Red Pepper Gradient - Enhanced for Leskovac spiciness -->
    <linearGradient id="pepperGradient" x1="0%" y1="0%" x2="0%" y2="100%">
      <stop offset="0%" stop-color="#FF2020" />
      <stop offset="100%" stop-color="#C00000" />
    </linearGradient>
    
    <!-- Hot Pepper Shine -->
    <radialGradient id="pepperShine" cx="30%" cy="30%" r="50%" fx="20%" fy="20%">
      <stop offset="0%" stop-color="#FFFFFF" stop-opacity="0.4" />
      <stop offset="100%" stop-color="#FFFFFF" stop-opacity="0" />
    </radialGradient>
    
    <!-- Kajmak Gradient -->
    <linearGradient id="kajmakGradient" x1="0%" y1="0%" x2="0%" y2="100%">
      <stop offset="0%" stop-color="#FFFFF0" />
      <stop offset="100%" stop-color="#FFF8C9" />
    </linearGradient>
    
    <!-- Cheese Gradient -->
    <linearGradient id="cheeseGradient" x1="0%" y1="0%" x2="0%" y2="100%">
      <stop offset="0%" stop-color="#FFD700" />
      <stop offset="100%" stop-color="#FFA500" />
    </linearGradient>
    
    <!-- Parsley Gradient -->
    <linearGradient id="parsleyGradient" x1="0%" y1="0%" x2="0%" y2="100%">
      <stop offset="0%" stop-color="#4CAF50" />
      <stop offset="100%" stop-color="#2E7D32" />
    </linearGradient>
    
    <!-- Paprika Powder Gradient -->
    <linearGradient id="paprikaGradient" x1="0%" y1="0%" x2="0%" y2="100%">
      <stop offset="0%" stop-color="#FF4500" />
      <stop offset="100%" stop-color="#D73502" />
    </linearGradient>
    
    <!-- Drop Shadow -->
    <filter id="dropShadow" x="-20%" y="-20%" width="140%" height="140%">
      <feGaussianBlur in="SourceAlpha" stdDeviation="2" />
      <feOffset dx="0" dy="2" result="offsetblur" />
      <feComponentTransfer>
        <feFuncA type="linear" slope="0.3" />
      </feComponentTransfer>
      <feMerge>
        <feMergeNode />
        <feMergeNode in="SourceGraphic" />
      </feMerge>
    </filter>
    
    <!-- Inner Shadow -->
    <filter id="innerShadow" x="-50%" y="-50%" width="200%" height="200%">
      <feGaussianBlur in="SourceAlpha" stdDeviation="1" result="blur" />
      <feOffset dx="0" dy="1" />
      <feComposite in2="SourceAlpha" operator="arithmetic" k2="-1" k3="1" />
      <feColorMatrix type="matrix" values="0 0 0 0 0  0 0 0 0 0  0 0 0 0 0  0 0 0 0.3 0" />
      <feMerge>
        <feMergeNode />
        <feMergeNode in="SourceGraphic" />
      </feMerge>
    </filter>
    
    <!-- Meat Texture - Enhanced for Leskovac style -->
    <pattern id="meatPattern" width="10" height="10" patternUnits="userSpaceOnUse">
      <rect width="10" height="10" fill="url(#pattyGradient)" />
      <circle cx="2" cy="2" r="1" fill="#500000" opacity="0.6" />
      <circle cx="7" cy="8" r="1.5" fill="#500000" opacity="0.4" />
      <circle cx="5" cy="4" r="0.8" fill="#FF3A00" opacity="0.3" />
    </pattern>
    
    <!-- Spice Dots Pattern -->
    <pattern id="spicePattern" width="8" height="8" patternUnits="userSpaceOnUse">
      <rect width="8" height="8" fill="transparent" />
      <circle cx="2" cy="2" r="0.6" fill="#FF4500" opacity="0.7" />
      <circle cx="6" cy="6" r="0.5" fill="#FF4500" opacity="0.7" />
      <circle cx="4" cy="1" r="0.4" fill="#C00000" opacity="0.6" />
    </pattern>
  </defs>
  
  <!-- Wooden Table Background -->
  <rect x="0" y="175" width="200" height="25" fill="url(#woodGradient)" />
  
  <!-- Plate with Shadow -->
  <ellipse cx="100" cy="165" rx="85" ry="20" fill="url(#plateGradient)" filter="url(#dropShadow)" />
  
  <!-- Bottom Bun -->
  <g filter="url(#dropShadow)">
    <ellipse cx="100" cy="150" rx="70" ry="15" fill="url(#bottomBunGradient)" />
    <path d="M40,145 C50,150 75,155 100,155 C125,155 150,150 160,145 C150,140 125,135 100,135 C75,135 50,140 40,145 Z" fill="url(#bottomBunEdgeGradient)" />
  </g>
  
  <!-- Leskovacka Pljeskavica Patty - Enhanced -->
  <g filter="url(#dropShadow)">
    <ellipse cx="100" cy="125" rx="65" ry="15" fill="url(#pattyGradient)" />
    <ellipse cx="100" cy="125" rx="65" ry="15" fill="url(#meatPattern)" opacity="0.9" />
    <ellipse cx="100" cy="125" rx="60" ry="13" fill="url(#spicePattern)" opacity="0.5" />
    
    <!-- Patty Texture Details - Enhanced -->
    <ellipse cx="85" cy="120" rx="15" ry="6" fill="url(#pattyTextureGradient)" />
    <ellipse cx="115" cy="130" rx="18" ry="5" fill="url(#pattyTextureGradient)" />
    <ellipse cx="100" cy="125" rx="12" ry="4" fill="url(#pattyTextureGradient)" />
    <ellipse cx="70" cy="125" rx="10" ry="4" fill="url(#pattyTextureGradient)" />
    <ellipse cx="130" cy="122" rx="10" ry="4" fill="url(#pattyTextureGradient)" />
  </g>
  
  <!-- Chopped Onions Scattered -->
  <g filter="url(#innerShadow)">
    <ellipse cx="80" cy="115" rx="8" ry="2" fill="url(#onionsGradient)" />
    <ellipse cx="110" cy="118" rx="7" ry="2" fill="url(#onionsGradient)" />
    <ellipse cx="95" cy="110" rx="6" ry="2" fill="url(#onionsGradient)" />
    <ellipse cx="120" cy="113" rx="5" ry="2" fill="url(#onionsGradient)" />
    <ellipse cx="70" cy="120" rx="5" ry="2" fill="url(#onionsGradient)" />
    <ellipse cx="130" cy="116" rx="6" ry="2" fill="url(#onionsGradient)" />
  </g>
  
  <!-- Paprika Powder Sprinkle - New -->
  <g opacity="0.6">
    <ellipse cx="90" cy="120" rx="40" ry="10" fill="url(#paprikaGradient)" opacity="0.2" />
    <ellipse cx="110" cy="123" rx="35" ry="8" fill="url(#paprikaGradient)" opacity="0.2" />
    
    <!-- Paprika Specks -->
    <circle cx="85" cy="119" r="0.8" fill="#FF4500" />
    <circle cx="92" cy="122" r="0.6" fill="#FF4500" />
    <circle cx="78" cy="121" r="0.7" fill="#FF4500" />
    <circle cx="105" cy="118" r="0.7" fill="#FF4500" />
    <circle cx="115" cy="123" r="0.6" fill="#FF4500" />
    <circle cx="125" cy="120" r="0.8" fill="#FF4500" />
    <circle cx="95" cy="115" r="0.5" fill="#FF4500" />
    <circle cx="110" cy="116" r="0.7" fill="#FF4500" />
  </g>
  
  <!-- Red Pepper Pieces - Enhanced for Leskovac spiciness -->
  <g filter="url(#innerShadow)">
    <!-- Larger, more prominent peppers -->
    <path d="M85,105 C88,102 93,102 96,105 C99,108 99,112 96,115 C93,118 88,118 85,115 C82,112 82,108 85,105 Z" fill="url(#pepperGradient)" />
    <ellipse cx="90.5" cy="110" rx="4" ry="3" fill="url(#pepperShine)" opacity="0.4" />
    
    <path d="M105,103 C108,100 113,100 116,103 C119,106 119,111 116,114 C113,117 108,117 105,114 C102,111 102,106 105,103 Z" fill="url(#pepperGradient)" />
    <ellipse cx="110.5" cy="108" rx="4" ry="3" fill="url(#pepperShine)" opacity="0.4" />
    
    <path d="M125,108 C128,105 133,105 136,108 C139,111 139,116 136,119 C133,122 128,122 125,119 C122,116 122,111 125,108 Z" fill="url(#pepperGradient)" />
    <ellipse cx="130.5" cy="113" rx="4" ry="3" fill="url(#pepperShine)" opacity="0.4" />
    
    <path d="M65,110 C68,107 73,107 76,110 C79,113 79,118 76,121 C73,124 68,124 65,121 C62,118 62,113 65,110 Z" fill="url(#pepperGradient)" />
    <ellipse cx="70.5" cy="115" rx="4" ry="3" fill="url(#pepperShine)" opacity="0.4" />
    
    <!-- Small Hot Peppers -->
    <ellipse cx="83" cy="98" rx="3" ry="6" transform="rotate(-30 83 98)" fill="url(#pepperGradient)" />
    <ellipse cx="117" cy="96" rx="3" ry="6" transform="rotate(30 117 96)" fill="url(#pepperGradient)" />
    <ellipse cx="100" cy="92" rx="3" ry="7" fill="url(#pepperGradient)" />
  </g>
  
  <!-- Kajmak Dollops -->
  <g filter="url(#dropShadow)">
    <ellipse cx="90" cy="95" rx="15" ry="7" fill="url(#kajmakGradient)" />
    <ellipse cx="120" cy="100" rx="12" ry="6" fill="url(#kajmakGradient)" />
    <ellipse cx="70" cy="100" rx="10" ry="5" fill="url(#kajmakGradient)" />
  </g>
  
  <!-- Melted Cheese -->
  <g filter="url(#innerShadow)">
    <path d="M75,95 C80,92 90,90 100,92 C110,94 120,95 125,92 C130,89 120,86 110,87 C100,88 90,89 80,88 C70,87 70,98 75,95 Z" fill="url(#cheeseGradient)" opacity="0.8" />
    
    <!-- Cheese Drips -->
    <path d="M85,95 Q84,100 83,110" stroke="#FFA500" stroke-width="2" fill="url(#cheeseGradient)" />
    <path d="M105,92 Q106,97 107,107" stroke="#FFA500" stroke-width="2" fill="url(#cheeseGradient)" />
    <path d="M115,90 Q116,95 117,105" stroke="#FFA500" stroke-width="2" fill="url(#cheeseGradient)" />
  </g>
  
  <!-- Parsley Garnish -->
  <g fill="url(#parsleyGradient)">
    <path d="M60,85 C62,82 65,80 68,82 C71,84 70,87 67,88 C64,89 58,88 60,85 Z" />
    <path d="M65,88 C66,90 68,91 70,90 C72,89 72,87 70,86 C68,85 64,86 65,88 Z" />
    <path d="M62,81 C64,79 67,78 69,80 C71,82 70,84 67,85 C64,86 60,83 62,81 Z" />
    
    <path d="M130,83 C132,80 135,78 138,80 C141,82 140,85 137,86 C134,87 128,86 130,83 Z" />
    <path d="M135,86 C136,88 138,89 140,88 C142,87 142,85 140,84 C138,83 134,84 135,86 Z" />
    <path d="M132,79 C134,77 137,76 139,78 C141,80 140,82 137,83 C134,84 130,81 132,79 Z" />
  </g>
  
  <!-- Top Bun with Shadow -->
  <g filter="url(#dropShadow)">
    <!-- Top Bun Main -->
    <ellipse cx="100" cy="70" rx="65" ry="20" fill="url(#topBunGradient)" />
    
    <!-- Top Bun Curved Bottom Edge -->
    <path d="M45,85 C55,80 75,78 100,78 C125,78 145,80 155,85 C145,90 125,92 100,92 C75,92 55,90 45,85 Z" fill="url(#topBunEdgeGradient)" />
    
    <!-- Top Bun Dome -->
    <path d="M45,70 C45,55 65,40 100,40 C135,40 155,55 155,70 C155,85 135,90 100,90 C65,90 45,85 45,70 Z" fill="url(#topBunGradient)" />
    
    <!-- Top Bun Highlight -->
    <ellipse cx="90" cy="55" rx="40" ry="15" fill="url(#topBunHighlight)" />
    
    <!-- Sesame Seeds -->
    <ellipse cx="80" cy="65" rx="3" ry="2" fill="url(#sesameGradient)" transform="rotate(-15 80 65)" />
    <ellipse cx="70" cy="55" rx="3" ry="2" fill="url(#sesameGradient)" transform="rotate(10 70 55)" />
    <ellipse cx="95" cy="50" rx="3" ry="2" fill="url(#sesameGradient)" transform="rotate(-5 95 50)" />
    <ellipse cx="115" cy="55" rx="3" ry="2" fill="url(#sesameGradient)" transform="rotate(20 115 55)" />
    <ellipse cx="130" cy="65" rx="3" ry="2" fill="url(#sesameGradient)" transform="rotate(-10 130 65)" />
    <ellipse cx="105" cy="65" rx="3" ry="2" fill="url(#sesameGradient)" transform="rotate(5 105 65)" />
    <ellipse cx="85" cy="75" rx="3" ry="2" fill="url(#sesameGradient)" transform="rotate(-25 85 75)" />
    <ellipse cx="120" cy="75" rx="3" ry="2" fill="url(#sesameGradient)" transform="rotate(15 120 75)" />
  </g>
  
  <!-- Highlights -->
  <ellipse cx="85" cy="120" rx="10" ry="4" fill="#FFFFFF" opacity="0.1" />
  <ellipse cx="110" cy="125" rx="12" ry="3" fill="#FFFFFF" opacity="0.1" />
  <ellipse cx="90" cy="95" rx="5" ry="2" fill="#FFFFFF" opacity="0.2" />
  <ellipse cx="120" cy="100" rx="4" ry="2" fill="#FFFFFF" opacity="0.2" />
  
  <!-- Steam Effect - Enhanced -->
  <g opacity="0.4">
    <path d="M80,80 Q85,75 90,80 Q95,85 100,75" stroke="#FFFFFF" stroke-width="1.2" fill="none" />
    <path d="M110,75 Q115,70 120,75 Q125,80 130,70" stroke="#FFFFFF" stroke-width="1.2" fill="none" />
    <path d="M95,70 Q100,65 105,70 Q110,75 115,65" stroke="#FFFFFF" stroke-width="1.2" fill="none" />
  </g>
  
  <!-- Heat Waves - New -->
  <g opacity="0.2">
    <path d="M75,85 Q80,82 85,85 Q90,88 95,85" stroke="#FF4500" stroke-width="0.8" fill="none" />
    <path d="M105,82 Q110,79 115,82 Q120,85 125,82" stroke="#FF4500" stroke-width="0.8" fill="none" />
    <path d="M90,78 Q95,75 100,78 Q105,81 110,78" stroke="#FF4500" stroke-width="0.8" fill="none" />
  </g>
</svg>
