<?xml version="1.0" encoding="UTF-8" standalone="no"?>
<svg width="200" height="200" viewBox="0 0 200 200" xmlns="http://www.w3.org/2000/svg">
  <defs>
    <!-- Wooden Table -->
    <linearGradient id="woodGradient" x1="0%" y1="0%" x2="100%" y2="0%">
      <stop offset="0%" stop-color="#8B5A2B" />
      <stop offset="20%" stop-color="#A67C52" />
      <stop offset="40%" stop-color="#8B5A2B" />
      <stop offset="60%" stop-color="#A67C52" />
      <stop offset="80%" stop-color="#8B5A2B" />
      <stop offset="100%" stop-color="#A67C52" />
    </linearGradient>
    
    <!-- Plate Gradient -->
    <linearGradient id="plateGradient" x1="0%" y1="0%" x2="0%" y2="100%">
      <stop offset="0%" stop-color="#FFFFFF" />
      <stop offset="100%" stop-color="#E0E0E0" />
    </linearGradient>
    
    <!-- Ustipci Dough Gradient -->
    <linearGradient id="doughGradient" x1="0%" y1="0%" x2="0%" y2="100%">
      <stop offset="0%" stop-color="#F9E2A6" />
      <stop offset="100%" stop-color="#DEB76E" />
    </linearGradient>
    
    <!-- Fried Texture Gradient -->
    <radialGradient id="friedTexture" cx="50%" cy="50%" r="50%" fx="50%" fy="50%">
      <stop offset="0%" stop-color="#EFCC85" />
      <stop offset="70%" stop-color="#DEB76E" />
      <stop offset="100%" stop-color="#C99C54" />
    </radialGradient>
    
    <!-- Kajmak Gradient -->
    <linearGradient id="kajmakGradient" x1="0%" y1="0%" x2="0%" y2="100%">
      <stop offset="0%" stop-color="#FFFEF0" />
      <stop offset="100%" stop-color="#FFF8C9" />
    </linearGradient>
    
    <!-- Jam Gradient -->
    <radialGradient id="jamGradient" cx="50%" cy="50%" r="50%" fx="50%" fy="50%">
      <stop offset="0%" stop-color="#E53E2F" />
      <stop offset="100%" stop-color="#AA1F14" />
    </radialGradient>
    
    <!-- Honey Gradient -->
    <linearGradient id="honeyGradient" x1="0%" y1="0%" x2="0%" y2="100%">
      <stop offset="0%" stop-color="#FDCB43" />
      <stop offset="100%" stop-color="#E5A010" />
    </linearGradient>
    
    <!-- Drop Shadow -->
    <filter id="dropShadow" x="-20%" y="-20%" width="140%" height="140%">
      <feGaussianBlur in="SourceAlpha" stdDeviation="2" />
      <feOffset dx="0" dy="2" result="offsetblur" />
      <feComponentTransfer>
        <feFuncA type="linear" slope="0.3" />
      </feComponentTransfer>
      <feMerge>
        <feMergeNode />
        <feMergeNode in="SourceGraphic" />
      </feMerge>
    </filter>
    
    <!-- Inner Shadow -->
    <filter id="innerShadow" x="-50%" y="-50%" width="200%" height="200%">
      <feGaussianBlur in="SourceAlpha" stdDeviation="1" result="blur" />
      <feOffset dx="0" dy="1" />
      <feComposite in2="SourceAlpha" operator="arithmetic" k2="-1" k3="1" />
      <feColorMatrix type="matrix" values="0 0 0 0 0  0 0 0 0 0  0 0 0 0 0  0 0 0 0.3 0" />
      <feMerge>
        <feMergeNode />
        <feMergeNode in="SourceGraphic" />
      </feMerge>
    </filter>
    
    <!-- Gloss Effect -->
    <filter id="gloss" x="-50%" y="-50%" width="200%" height="200%">
      <feGaussianBlur in="SourceAlpha" stdDeviation="2" />
      <feOffset dx="0" dy="-2" />
      <feComponentTransfer>
        <feFuncA type="linear" slope="0.3" />
      </feComponentTransfer>
      <feComposite in2="SourceGraphic" operator="arithmetic" k2="-1" k3="1" />
      <feColorMatrix type="matrix" values="0 0 0 0 1  0 0 0 0 1  0 0 0 0 1  0 0 0 0.5 0" />
      <feMerge>
        <feMergeNode />
        <feMergeNode in="SourceGraphic" />
      </feMerge>
    </filter>
  </defs>
  
  <!-- Wooden Table Background -->
  <rect x="0" y="175" width="200" height="25" fill="url(#woodGradient)" />
  
  <!-- Plate with Shadow -->
  <ellipse cx="100" cy="165" rx="85" ry="20" fill="url(#plateGradient)" filter="url(#dropShadow)" />
  
  <!-- Ustipci (fried dough balls) -->
  <g filter="url(#dropShadow)">
    <!-- First Row -->
    <circle cx="60" cy="130" r="20" fill="url(#friedTexture)" stroke="#C99C54" stroke-width="0.5" />
    <circle cx="105" cy="130" r="20" fill="url(#friedTexture)" stroke="#C99C54" stroke-width="0.5" />
    <circle cx="150" cy="130" r="20" fill="url(#friedTexture)" stroke="#C99C54" stroke-width="0.5" />
    
    <!-- Second Row -->
    <circle cx="80" cy="95" r="20" fill="url(#friedTexture)" stroke="#C99C54" stroke-width="0.5" />
    <circle cx="125" cy="95" r="20" fill="url(#friedTexture)" stroke="#C99C54" stroke-width="0.5" />
  </g>
  
  <!-- Fried Surface Texture -->
  <g opacity="0.5">
    <circle cx="62" cy="127" r="2" fill="#C99C54" />
    <circle cx="55" cy="135" r="2" fill="#C99C54" />
    <circle cx="67" cy="140" r="2" fill="#C99C54" />
    
    <circle cx="107" cy="127" r="2" fill="#C99C54" />
    <circle cx="100" cy="135" r="2" fill="#C99C54" />
    <circle cx="112" cy="140" r="2" fill="#C99C54" />
    
    <circle cx="152" cy="127" r="2" fill="#C99C54" />
    <circle cx="145" cy="135" r="2" fill="#C99C54" />
    <circle cx="157" cy="140" r="2" fill="#C99C54" />
    
    <circle cx="82" cy="92" r="2" fill="#C99C54" />
    <circle cx="75" cy="100" r="2" fill="#C99C54" />
    <circle cx="87" cy="105" r="2" fill="#C99C54" />
    
    <circle cx="127" cy="92" r="2" fill="#C99C54" />
    <circle cx="120" cy="100" r="2" fill="#C99C54" />
    <circle cx="132" cy="105" r="2" fill="#C99C54" />
  </g>
  
  <!-- Light Highlights -->
  <g opacity="0.4">
    <ellipse cx="53" cy="123" rx="8" ry="5" fill="#FFFFFF" />
    <ellipse cx="98" cy="123" rx="8" ry="5" fill="#FFFFFF" />
    <ellipse cx="143" cy="123" rx="8" ry="5" fill="#FFFFFF" />
    <ellipse cx="73" cy="88" rx="8" ry="5" fill="#FFFFFF" />
    <ellipse cx="118" cy="88" rx="8" ry="5" fill="#FFFFFF" />
  </g>
  
  <!-- Kajmak (Clotted Cream) Topping -->
  <g filter="url(#gloss)">
    <ellipse cx="60" cy="118" rx="10" ry="5" fill="url(#kajmakGradient)" stroke="#F2EFC9" stroke-width="0.5" />
    <ellipse cx="125" cy="83" rx="10" ry="5" fill="url(#kajmakGradient)" stroke="#F2EFC9" stroke-width="0.5" />
  </g>
  
  <!-- Jam Topping -->
  <g filter="url(#gloss)">
    <ellipse cx="105" cy="118" rx="10" ry="5" fill="url(#jamGradient)" stroke="#AA1F14" stroke-width="0.5" />
  </g>
  
  <!-- Honey Topping with Drip Effect -->
  <g filter="url(#gloss)">
    <ellipse cx="150" cy="118" rx="10" ry="5" fill="url(#honeyGradient)" stroke="#E5A010" stroke-width="0.5" />
    <path d="M152,122 Q153,125 154,133 Q154.5,138 153,140" stroke="url(#honeyGradient)" stroke-width="2" fill="none" />
    
    <ellipse cx="80" cy="83" rx="10" ry="5" fill="url(#honeyGradient)" stroke="#E5A010" stroke-width="0.5" />
    <path d="M82,87 Q83,90 84,95 Q84.5,98 83,100" stroke="url(#honeyGradient)" stroke-width="2" fill="none" />
  </g>
  
  <!-- Sugar Powder Sprinkle -->
  <g fill="#FFFFFF" opacity="0.7">
    <circle cx="58" cy="115" r="0.7" />
    <circle cx="62" cy="117" r="0.7" />
    <circle cx="57" cy="120" r="0.7" />
    <circle cx="64" cy="121" r="0.7" />
    <circle cx="60" cy="123" r="0.7" />
    
    <circle cx="103" cy="115" r="0.7" />
    <circle cx="107" cy="117" r="0.7" />
    <circle cx="102" cy="120" r="0.7" />
    <circle cx="109" cy="121" r="0.7" />
    <circle cx="105" cy="123" r="0.7" />
    
    <circle cx="148" cy="115" r="0.7" />
    <circle cx="152" cy="117" r="0.7" />
    <circle cx="147" cy="120" r="0.7" />
    <circle cx="154" cy="121" r="0.7" />
    <circle cx="150" cy="123" r="0.7" />
    
    <circle cx="78" cy="80" r="0.7" />
    <circle cx="82" cy="82" r="0.7" />
    <circle cx="77" cy="85" r="0.7" />
    <circle cx="84" cy="86" r="0.7" />
    <circle cx="80" cy="88" r="0.7" />
    
    <circle cx="123" cy="80" r="0.7" />
    <circle cx="127" cy="82" r="0.7" />
    <circle cx="122" cy="85" r="0.7" />
    <circle cx="129" cy="86" r="0.7" />
    <circle cx="125" cy="88" r="0.7" />
  </g>
</svg> 